<svg width="22" height="27" viewBox="0 0 22 27" fill="none" xmlns="http://www.w3.org/2000/svg">
<path d="M18.2696 13.9401C18.239 10.6285 21.0507 9.0173 21.1793 8.9423C19.5869 6.6788 17.1188 6.3695 16.2515 6.3448C14.1786 6.1321 12.1678 7.5542 11.1119 7.5542C10.0348 7.5542 8.40883 6.3654 6.65623 6.4003C4.40103 6.4342 2.29123 7.7073 1.13403 9.6842C-1.25397 13.7151 0.527027 19.6386 2.81493 22.8968C3.95943 24.4925 5.29673 26.2742 7.04723 26.2116C8.75973 26.1427 9.39943 25.1471 11.466 25.1471C13.5136 25.1471 14.1143 26.2116 15.8995 26.1715C17.7374 26.1427 18.8945 24.5686 19.999 22.9585C21.3215 21.1295 21.8527 19.3283 21.8738 19.2358C21.8306 19.2215 18.3044 17.9093 18.2696 13.9401Z" fill="#43495C"/>
<path d="M14.8965 4.2015C15.8176 3.0784 16.4478 1.5505 16.2728 0C14.9397 0.0575 13.2725 0.8991 12.3125 1.9975C11.4631 2.9654 10.7043 4.5518 10.9003 6.0438C12.3978 6.1527 13.9354 5.307 14.8965 4.2015Z" fill="#43495C"/>
</svg>
