<svg width="197" height="48" viewBox="0 0 197 48" fill="none" xmlns="http://www.w3.org/2000/svg">
<g clip-path="url(#clip0)">
<path d="M45.3462 11.9802L44.3212 10.1803C44.2408 10.0393 44.1289 9.91867 43.9942 9.82799C43.8596 9.7373 43.7057 9.67897 43.5448 9.65754C43.3839 9.6361 43.2201 9.65215 43.0664 9.70443C42.9127 9.75671 42.7732 9.84381 42.6587 9.95892L40.3012 12.3144C40.1288 12.4876 40.0216 12.7151 39.9977 12.9582C39.9738 13.2014 40.0346 13.4454 40.17 13.6489C41.0296 14.9625 41.7184 16.3802 42.22 17.8678C43.1569 20.6487 43.4186 23.6126 42.9833 26.5146C42.548 29.4166 41.4283 32.1734 39.7167 34.557C38.0051 36.9406 35.7508 38.8826 33.1401 40.2225C30.5294 41.5624 27.6372 42.2618 24.7028 42.2627C21.6819 42.271 18.7058 41.5323 16.0395 40.1123L20.0267 36.123C22.4975 37.0575 25.1917 37.2294 27.7611 36.6166C30.3306 36.0038 32.6572 34.6344 34.4402 32.6854C36.2232 30.7364 37.3807 28.2974 37.7629 25.6836C38.1452 23.0699 37.7347 20.4016 36.5845 18.0236C36.5115 17.8713 36.403 17.7388 36.2682 17.6371C36.1333 17.5355 35.9761 17.4676 35.8096 17.4393C35.6431 17.411 35.4723 17.423 35.3114 17.4744C35.1505 17.5258 35.0043 17.615 34.8851 17.7345L32.4989 20.1043C32.3717 20.2314 32.2791 20.3889 32.2299 20.5618C32.1807 20.7348 32.1767 20.9175 32.218 21.0924L32.423 21.9493C32.7758 23.4504 32.6827 25.0217 32.1551 26.4706C31.6275 27.9195 30.6884 29.1828 29.4531 30.1056C28.2177 31.0283 26.7399 31.5704 25.2008 31.6652C23.6618 31.76 22.1286 31.4034 20.7893 30.6392L19.7377 30.0365C19.5367 29.9208 19.3031 29.8747 19.0733 29.9055C18.8434 29.9363 18.6301 30.0422 18.4667 30.2067L8.72718 39.9442C8.62087 40.0505 8.53849 40.1783 8.48555 40.319C8.43262 40.4597 8.41036 40.6102 8.42026 40.7602C8.43016 40.9102 8.47199 41.0564 8.54295 41.189C8.61391 41.3215 8.71237 41.4374 8.83173 41.5288L10.2667 42.6297C14.405 45.8187 19.4865 47.5409 24.711 47.525C28.8704 47.5197 32.9557 46.4235 36.559 44.3457C40.1624 42.268 43.1577 39.2815 45.246 35.6843C47.3344 32.0871 48.4426 28.005 48.4602 23.8456C48.4778 19.6862 47.404 15.5949 45.3462 11.9802Z" fill="#848484"/>
<path d="M39.149 4.89754C35.0112 1.70731 29.9296 -0.0156468 24.7048 0.000107081C20.5433 0.00334185 16.4556 1.09858 12.85 3.1764C9.24435 5.25422 6.24714 8.24185 4.15779 11.8408C2.06843 15.4397 0.960108 19.524 0.943548 23.6854C0.926987 27.8468 2.00277 31.9397 4.06341 35.5552L5.08841 37.353C5.16913 37.4939 5.28122 37.6144 5.41599 37.705C5.55076 37.7956 5.70459 37.854 5.86555 37.8756C6.02651 37.8972 6.19029 37.8815 6.34419 37.8296C6.49809 37.7777 6.63797 37.6911 6.753 37.5765L9.1064 35.2231C9.27757 35.0496 9.384 34.8226 9.40788 34.5801C9.43176 34.3375 9.37165 34.0941 9.2376 33.8906C8.37719 32.5774 7.68826 31.1596 7.1876 29.6717C6.25065 26.8908 5.989 23.9269 6.42429 21.0249C6.85957 18.1229 7.97929 15.3661 9.69088 12.9825C11.4025 10.5989 13.6568 8.65687 16.2675 7.31696C18.8782 5.97704 21.7703 5.27772 24.7048 5.27679C27.7256 5.26995 30.7011 6.01084 33.366 7.43338L29.3767 11.4206C27.3783 10.6632 25.2259 10.4024 23.1045 10.6605C20.983 10.9186 18.9559 11.6879 17.1974 12.9024C15.4389 14.1168 14.0016 15.7401 13.009 17.6327C12.0164 19.5253 11.4981 21.6306 11.4987 23.7677C11.4987 23.9871 11.5582 24.9875 11.5766 25.1597C11.7383 26.6737 12.1592 28.1487 12.821 29.52C12.8943 29.6723 13.003 29.8048 13.138 29.9065C13.273 30.0081 13.4304 30.0759 13.597 30.1042C13.7636 30.1325 13.9346 30.1205 14.0956 30.0692C14.2567 30.0178 14.403 29.9286 14.5225 29.809L16.9087 27.4208C17.0358 27.2941 17.1284 27.137 17.1779 26.9645C17.2274 26.7919 17.2321 26.6096 17.1916 26.4348L16.9866 25.5758C16.6333 24.0747 16.7262 22.5032 17.2537 21.0541C17.7812 19.6051 18.7204 18.3416 19.956 17.4189C21.1915 16.4962 22.6697 15.9545 24.2089 15.8601C25.7481 15.7658 27.2813 16.123 28.6203 16.8879L29.6719 17.4906C29.8732 17.6054 30.1065 17.6509 30.3361 17.6201C30.5658 17.5894 30.7789 17.4841 30.9429 17.3205L40.6804 7.58303C40.7869 7.47667 40.8694 7.34881 40.9225 7.208C40.9756 7.06718 40.9981 6.91666 40.9884 6.76647C40.9787 6.61629 40.937 6.4699 40.8663 6.3371C40.7955 6.20429 40.6972 6.08811 40.5779 5.99634L39.149 4.89754Z" fill="#848484"/>
<path d="M79.1777 30.3216C79.0001 30.1773 78.777 30.101 78.5482 30.1063C78.3195 30.1115 78.1001 30.198 77.9293 30.3503C76.402 31.5351 74.6309 32.6319 72.0417 32.6319C67.3021 32.6319 63.4461 28.6406 63.4461 23.7308C63.4461 18.8211 67.2878 14.7949 72.0069 14.7949C74.0569 14.7949 76.2708 15.658 77.8985 17.0868C77.9903 17.1932 78.1043 17.2781 78.2326 17.3355C78.3608 17.3929 78.5001 17.4214 78.6406 17.4189C78.7624 17.4092 78.8805 17.373 78.9868 17.3128C79.093 17.2526 79.1848 17.1699 79.2556 17.0704L80.7972 15.4837C80.8953 15.3888 80.9728 15.2746 81.0246 15.1483C81.0765 15.022 81.1017 14.8863 81.0986 14.7498C81.0928 14.6111 81.0585 14.4751 80.9978 14.3502C80.9372 14.2254 80.8514 14.1144 80.746 14.0241C78.0543 11.6789 75.3504 10.6334 71.97 10.6334C64.754 10.6334 58.8828 16.5415 58.8828 23.8026C58.8855 27.2736 60.2649 30.6019 62.7183 33.0572C65.1718 35.5126 68.4989 36.8946 71.97 36.9C73.6005 36.9193 75.2188 36.6159 76.7317 36.0072C78.2445 35.3985 79.622 34.4967 80.7849 33.3535C80.887 33.2494 80.9671 33.126 81.0206 32.9904C81.0742 32.8549 81.1 32.7099 81.0965 32.5642C81.0938 32.4483 81.0677 32.334 81.0198 32.2283C80.9719 32.1227 80.9032 32.0278 80.8177 31.9492L79.1777 30.3216Z" fill="#848484"/>
<path d="M90.3993 10.9901H88.0644C87.8038 10.9989 87.5564 11.1065 87.3725 11.2912C87.1886 11.476 87.0819 11.7238 87.0742 11.9844V35.5593C87.0814 35.8202 87.1878 36.0685 87.3718 36.2537C87.5558 36.4388 87.8035 36.5468 88.0644 36.5556H90.3993C90.6602 36.5468 90.9079 36.4388 91.0919 36.2537C91.2759 36.0685 91.3823 35.8202 91.3895 35.5593V11.9844C91.3818 11.7238 91.2751 11.476 91.0912 11.2912C90.9072 11.1065 90.6598 10.9989 90.3993 10.9901Z" fill="#848484"/>
<path d="M118.034 18.9256C118.034 14.5509 114.432 10.9901 110.004 10.9901H100.375C100.112 10.9912 99.8601 11.0964 99.6745 11.2828C99.489 11.4691 99.3848 11.7214 99.3848 11.9844V35.5593C99.3842 35.8226 99.4882 36.0754 99.6738 36.2622C99.8594 36.449 100.112 36.5545 100.375 36.5556H102.675C102.936 36.5468 103.184 36.4388 103.368 36.2537C103.552 36.0685 103.658 35.8202 103.665 35.5593V26.7915H108.491L113.114 36.0472C113.198 36.1988 113.321 36.3251 113.471 36.4127C113.62 36.5004 113.791 36.5462 113.964 36.5453H116.724C116.898 36.5511 117.071 36.5107 117.224 36.4283C117.378 36.3459 117.507 36.2243 117.599 36.0759C117.686 35.9191 117.732 35.7427 117.732 35.5634C117.732 35.384 117.686 35.2076 117.599 35.0509L112.909 26.3097C116.078 24.9014 118.034 22.1011 118.034 18.9256ZM113.718 18.9974C113.718 21.2175 111.888 23.0974 109.721 23.0974H103.737V15.0798H109.713C111.884 15.0798 113.71 16.8736 113.71 18.9974H113.718Z" fill="#848484"/>
<path d="M143.162 30.3215C142.984 30.1773 142.761 30.101 142.532 30.1063C142.303 30.1115 142.084 30.198 141.913 30.3502C140.386 31.5351 138.615 32.6319 136.026 32.6319C131.286 32.6319 127.43 28.6406 127.43 23.7308C127.43 18.8211 131.27 14.7949 135.989 14.7949C138.039 14.7949 140.253 15.658 141.882 17.0868C141.975 17.1943 142.09 17.2798 142.219 17.3373C142.348 17.3947 142.489 17.4226 142.631 17.4189C142.752 17.4092 142.87 17.373 142.977 17.3128C143.083 17.2526 143.175 17.1699 143.246 17.0704L144.787 15.4837C144.885 15.3887 144.962 15.2744 145.014 15.1481C145.065 15.0218 145.09 14.8862 145.086 14.7498C145.082 14.6111 145.048 14.475 144.988 14.3501C144.927 14.2252 144.841 14.1141 144.736 14.0241C142.05 11.6789 139.346 10.6334 135.966 10.6334C128.75 10.6334 122.879 16.5415 122.879 23.8026C122.882 27.2736 124.261 30.6019 126.714 33.0572C129.168 35.5126 132.495 36.8945 135.966 36.9C137.597 36.919 139.215 36.6155 140.728 36.0069C142.24 35.3982 143.618 34.4965 144.781 33.3535C144.883 33.2491 144.963 33.1253 145.017 32.9894C145.07 32.8535 145.096 32.7082 145.093 32.5622C145.09 32.4462 145.064 32.3319 145.016 32.2262C144.968 32.1205 144.899 32.0256 144.814 31.9472L143.162 30.3215Z" fill="#848484"/>
<path d="M164.64 32.597H155.374V11.9844C155.366 11.7238 155.26 11.476 155.076 11.2912C154.892 11.1065 154.644 10.9989 154.384 10.9901H152.049C151.786 10.9912 151.534 11.0964 151.348 11.2828C151.163 11.4691 151.059 11.7214 151.059 11.9844V35.5593C151.058 35.8226 151.162 36.0754 151.348 36.2622C151.533 36.449 151.785 36.5545 152.049 36.5556H164.64C164.77 36.5553 164.9 36.5293 165.02 36.4791C165.141 36.4289 165.25 36.3554 165.342 36.2629C165.434 36.1704 165.507 36.0606 165.557 35.9399C165.607 35.8192 165.632 35.6898 165.632 35.5593V33.6015C165.633 33.4703 165.609 33.3401 165.559 33.2184C165.51 33.0967 165.437 32.986 165.345 32.8926C165.253 32.7992 165.143 32.725 165.022 32.6743C164.901 32.6235 164.771 32.5973 164.64 32.597Z" fill="#848484"/>
<path d="M185.612 14.9795C185.875 14.9784 186.126 14.8732 186.312 14.6868C186.498 14.5005 186.602 14.2482 186.602 13.9852V11.9906C186.602 11.7276 186.498 11.4753 186.312 11.289C186.126 11.1027 185.875 10.9974 185.612 10.9963H171.467C171.204 10.9974 170.952 11.1027 170.766 11.289C170.581 11.4753 170.477 11.7276 170.477 11.9906V35.5655C170.476 35.8288 170.58 36.0816 170.766 36.2684C170.951 36.4552 171.203 36.5607 171.467 36.5618H185.612C185.875 36.5607 186.127 36.4552 186.313 36.2684C186.498 36.0816 186.602 35.8288 186.602 35.5655V33.6078C186.602 33.3448 186.498 33.0925 186.312 32.9062C186.126 32.7198 185.875 32.6146 185.612 32.6135H174.747V25.58H183.871C184.135 25.5794 184.387 25.4745 184.573 25.2881C184.759 25.1017 184.863 24.8491 184.863 24.5857V22.5931C184.856 22.3319 184.749 22.0832 184.565 21.898C184.381 21.7129 184.132 21.6051 183.871 21.5968H174.753V14.9795H185.612Z" fill="#848484"/>
</g>
<defs>
<clipPath id="clip0">
<rect width="196" height="48" fill="white" transform="translate(0.943359)"/>
</clipPath>
</defs>
</svg>
