<svg width="49" height="48" viewBox="0 0 49 48" fill="none" xmlns="http://www.w3.org/2000/svg">
<path d="M12.5 38C11.3954 38 10.5 37.1046 10.5 36L10.5 18C10.5 16.8954 11.3954 16 12.5 16V16C13.6046 16 14.5 16.8954 14.5 18L14.5 36C14.5 37.1046 13.6046 38 12.5 38V38Z" fill="#22B94C"/>
<path d="M24.5 38C23.3954 38 22.5 37.1046 22.5 36L22.5 18C22.5 16.8954 23.3954 16 24.5 16V16C25.6046 16 26.5 16.8954 26.5 18L26.5 36C26.5 37.1046 25.6046 38 24.5 38V38Z" fill="#22B94C"/>
<path d="M36.5 38C35.3954 38 34.5 37.1046 34.5 36L34.5 18C34.5 16.8954 35.3954 16 36.5 16V16C37.6046 16 38.5 16.8954 38.5 18L38.5 36C38.5 37.1046 37.6046 38 36.5 38V38Z" fill="#22B94C"/>
<path d="M23.1801 6.32494C24.011 5.89169 24.989 5.89169 25.8199 6.32494L40.8641 14.1692C43.6497 15.6217 42.6586 20 39.5442 20H9.45584C6.34143 20 5.35031 15.6217 8.13592 14.1692L23.1801 6.32494Z" fill="#3A3391"/>
<path d="M8.5 34.4C8.5 33.0745 9.57452 32 10.9 32H38.1C39.4255 32 40.5 33.0745 40.5 34.4V34.4C40.5 35.2837 39.7837 36 38.9 36H10.1C9.21634 36 8.5 35.2837 8.5 34.4V34.4Z" fill="#22B94C"/>
<path d="M6.5 39C6.5 37.3431 7.84315 36 9.5 36H39.5C41.1569 36 42.5 37.3431 42.5 39V39C42.5 40.6569 41.1569 42 39.5 42H9.5C7.84315 42 6.5 40.6569 6.5 39V39Z" fill="#3A3391"/>
</svg>
