<svg width="49" height="48" viewBox="0 0 49 48" fill="none" xmlns="http://www.w3.org/2000/svg">
<rect x="14.5" y="16" width="20" height="6" rx="3" fill="#22B94C"/>
<rect x="18.5" y="26" width="12" height="6" rx="3" fill="#22B94C"/>
<path fill-rule="evenodd" clip-rule="evenodd" d="M6.5 15.6611C6.5 13.5889 8.09616 11.9004 10.1173 11.4427C14.7781 10.3874 18.1182 8.20271 22.2899 5.45018C23.6276 4.56753 25.3612 4.58413 26.6817 5.4923C30.3289 8.00061 33.6673 10.2178 38.9988 11.4089C40.9754 11.8505 42.5 13.5246 42.5 15.5499V24C42.5 33.9411 34.4411 42 24.5 42C14.5589 42 6.5 33.9411 6.5 24V15.6611ZM14.5 19C14.5 17.3432 15.8431 16 17.5 16H31.5C33.1569 16 34.5 17.3432 34.5 19C34.5 20.6569 33.1569 22 31.5 22H17.5C15.8431 22 14.5 20.6569 14.5 19ZM21.5 26C19.8431 26 18.5 27.3432 18.5 29C18.5 30.6569 19.8431 32 21.5 32H27.5C29.1569 32 30.5 30.6569 30.5 29C30.5 27.3432 29.1569 26 27.5 26H21.5Z" fill="#3A3391"/>
</svg>
