<svg width="243" height="48" viewBox="0 0 243 48" fill="none" xmlns="http://www.w3.org/2000/svg">
<g clip-path="url(#clip0)">
<path d="M81.042 11.1497H81.1227C81.6069 11.1497 81.8894 11.5129 81.8894 11.9971V33.7494C81.8894 34.1126 81.6069 34.5161 81.1227 34.5161C80.7595 34.5161 80.3559 34.2336 80.3559 33.7494V11.9164C80.3559 11.5129 80.6384 11.1497 81.042 11.1497ZM60.339 12.2796H74.5849C75.0692 12.2796 75.3517 12.7639 75.3517 13.1271C75.3517 13.4903 75.0692 13.8939 74.5849 13.8939H61.1058V22.9741H73.2935C73.6567 22.9741 74.0603 23.2566 74.0603 23.7409C74.0603 24.1041 73.7778 24.5077 73.2935 24.5077H61.2269V33.8704C61.1461 34.3547 60.7426 34.7179 60.2987 34.7179C59.8144 34.7179 59.4512 34.3547 59.4512 33.8704V13.1675H59.5319C59.4915 12.6429 59.8951 12.2796 60.339 12.2796ZM101.705 19.0192C101.705 18.5349 101.341 18.2524 100.938 18.2524C100.453 18.2524 100.171 18.6156 100.171 19.0192V28.0994C100.171 31.2069 97.6285 33.6283 94.5211 33.5476C91.2118 33.5476 89.3151 31.4087 89.3151 28.0187V19.0192C89.3151 18.5349 88.9518 18.2524 88.5483 18.2524C88.1851 18.2524 87.7815 18.6156 87.7815 19.0192V28.3012C87.7815 32.1351 90.2433 34.9601 94.2789 34.9601C96.7407 35.0408 99.0814 33.7494 100.211 31.5701V33.9108C100.211 34.3951 100.575 34.6776 100.978 34.6776C101.462 34.6776 101.745 34.3143 101.745 33.9108H101.664V19.0192H101.705ZM116.031 19.1403C116.031 19.5035 115.668 19.786 115.264 19.786H110.058V30.198C110.058 32.5387 111.39 33.3861 113.368 33.3861C114.013 33.3861 114.699 33.3054 115.264 33.1036C115.628 33.1036 115.91 33.3861 115.91 33.7494C115.91 34.0318 115.708 34.3143 115.426 34.3951C114.659 34.6776 113.812 34.7583 113.085 34.7583C110.623 34.7583 108.565 33.3458 108.565 30.3594V19.786H106.789C106.426 19.786 106.023 19.4228 106.023 19.0192C106.023 18.656 106.386 18.3735 106.789 18.3735H108.565V13.8939C108.565 13.5307 108.848 13.1271 109.211 13.1271H109.292C109.655 13.1271 110.058 13.4903 110.058 13.8939V18.3735H115.264C115.668 18.3735 116.031 18.7367 116.031 19.1403ZM128.138 19.786C128.501 19.786 128.905 19.5035 128.905 19.1403C128.905 18.7771 128.542 18.3735 128.138 18.3735H122.932V13.8939C122.932 13.5307 122.569 13.1271 122.165 13.1271H122.085C121.721 13.1271 121.439 13.4903 121.439 13.8939V18.3735H119.663C119.3 18.3735 118.896 18.656 118.896 19.0192C118.896 19.3824 119.26 19.786 119.663 19.786H121.439V30.3594C121.439 33.3458 123.497 34.7583 125.959 34.7583C126.726 34.7583 127.573 34.6776 128.3 34.3951C128.582 34.3143 128.784 34.0318 128.784 33.7494C128.784 33.3861 128.501 33.1036 128.138 33.1036C127.573 33.3054 126.927 33.3861 126.241 33.3861C124.264 33.3861 122.932 32.5387 122.932 30.198V19.786H128.138ZM131.73 26.4448C131.73 21.6827 135.039 17.9296 139.478 17.9296C144.119 17.9296 147.025 21.6827 147.025 26.4448C147.025 26.808 146.662 27.2116 146.258 27.2116H133.425C133.707 31.2473 136.653 33.5879 139.842 33.5879C141.819 33.5879 143.796 32.7404 145.128 31.328C145.209 31.2472 145.411 31.1262 145.613 31.1262C145.976 31.1262 146.379 31.4894 146.379 31.8929C146.379 32.0947 146.299 32.2562 146.097 32.4579C144.483 34.2336 142.142 35.1618 139.761 35.0811C135.402 35.0811 131.73 31.6912 131.73 26.5659V26.4448ZM153.159 23.0549C154.208 20.351 156.751 18.3735 159.657 18.1717C160.141 18.1717 160.504 18.5349 160.504 19.0999C160.504 19.4631 160.222 19.9474 159.737 19.9474H159.657C156.146 20.3106 153.159 22.8531 153.159 28.0994V34.1126C153.078 34.5968 152.796 34.8793 152.312 34.8793C151.948 34.8793 151.545 34.5161 151.545 34.1126V19.0999C151.626 18.6156 151.908 18.3331 152.392 18.3331C152.756 18.3331 153.159 18.6963 153.159 19.0999V23.0549ZM185.404 17.3242C184.274 17.3242 183.346 18.091 183.063 19.1806L180.319 27.8976L177.575 19.1806C177.292 18.0506 176.243 17.2031 175.032 17.2031H174.75C173.539 17.2031 172.49 17.9699 172.208 19.1806L169.463 27.8169L166.84 19.0999C166.558 18.0506 165.629 17.2435 164.499 17.2435H164.419C163.208 17.2435 162.239 18.2928 162.239 19.5035C162.239 19.8667 162.32 20.2702 162.441 20.6335L166.679 32.7404C166.961 33.9511 168.01 34.7986 169.302 34.8793H169.504C170.714 34.8793 171.764 34.0319 172.127 32.8212L174.871 24.1848L177.615 32.8212C177.898 34.0319 179.028 34.8793 180.238 34.8793H180.44C181.772 34.8793 182.902 34.0318 183.184 32.7404L187.422 20.5528C187.503 20.2703 187.624 19.907 187.624 19.6245V19.5438C187.583 18.2928 186.655 17.3242 185.404 17.3242ZM192.023 18.1717C193.798 17.6067 195.614 17.2435 197.511 17.3242C200.134 17.3242 202.031 18.091 203.444 19.3017C204.775 20.7949 205.421 22.7724 205.34 24.7498V32.4176C205.34 33.7494 204.291 34.7583 203 34.7583C201.789 34.7583 200.74 33.9108 200.659 32.7001C199.327 34.1126 197.43 34.9601 195.453 34.839C192.345 34.839 189.601 32.9826 189.601 29.5926C189.601 25.8395 192.426 24.0638 196.502 24.0638C197.915 24.0638 199.327 24.2656 200.659 24.7095V24.427C200.659 22.3688 199.448 21.3195 196.986 21.3195C195.856 21.3195 194.726 21.4002 193.596 21.8038C193.395 21.8845 193.112 21.8845 192.951 21.8845C191.821 21.9652 190.893 21.1177 190.893 20.0281C190.812 19.221 191.256 18.4542 192.023 18.1717ZM219.869 18.9385C220.151 17.8892 221.079 17.2435 222.129 17.2435C223.46 17.2435 224.469 18.2928 224.469 19.5035V19.5842C224.469 19.9474 224.389 20.351 224.187 20.7142L219.102 32.8212C218.618 34.0319 217.488 34.7986 216.277 34.8793H215.994C214.663 34.7986 213.654 33.9511 213.25 32.7404L207.963 20.6335C207.762 20.2702 207.681 19.8667 207.681 19.5035C207.762 18.1717 208.811 17.2435 210.022 17.2435C211.152 17.2435 212.08 18.0103 212.362 19.0192L216.035 28.8662L219.869 18.9385ZM226.406 26.808C226.608 31.4894 230.644 35.1618 235.366 34.8793C237.545 34.8793 239.603 34.2336 241.298 32.8212C241.782 32.4579 241.944 31.9737 241.944 31.4087V31.328C241.944 30.2787 241.096 29.4715 240.047 29.4715C239.684 29.4715 239.199 29.5523 238.917 29.8348C237.868 30.6015 236.657 31.0455 235.406 30.9648C233.348 31.0455 231.532 29.633 231.249 27.5748H240.975C242.186 27.4941 243.154 26.4448 243.033 25.2341V24.8709C243.033 20.6335 239.361 17.0821 234.841 17.2031C229.837 17.2031 226.326 21.2388 226.326 26.122V26.808H226.406Z" fill="#848484"/>
<path d="M133.303 25.678C133.585 22.1266 136.128 19.3823 139.356 19.3823C143.029 19.3823 145.006 22.3687 145.208 25.678H133.303ZM200.698 28.5029C200.698 30.3593 199.084 31.4893 196.824 31.4086C195.331 31.4086 194.201 30.6418 194.201 29.3504V29.2697C194.201 27.8572 195.533 26.929 197.591 26.929C198.64 26.929 199.77 27.2115 200.698 27.5747V28.5029ZM234.88 21.0773C232.903 21.0773 231.571 22.4898 231.208 24.7498H238.472C238.19 22.5705 236.858 21.0773 234.88 21.0773Z" fill="white"/>
<path d="M35.0752 0.37436C56.3028 -2.81381 42.7026 15.266 36.1245 20.3509C40.6444 23.8216 45.2855 28.7047 47.2629 34.2335C50.9354 44.3631 41.8955 45.8562 35.0752 43.3138C27.6093 40.6906 21.0311 35.081 16.6726 28.5029C15.4619 28.5029 14.1302 28.3011 12.8791 27.9379C15.3409 34.8792 16.3901 41.982 15.7041 47.7934C15.7041 36.09 10.1349 24.4672 2.1039 14.7817C-0.721067 11.3917 2.18461 8.8896 4.72707 12.1585C6.46241 14.5395 8.03631 17.0013 9.4488 19.5438C12.2334 10.0196 25.7932 1.70613 35.0752 0.37436ZM32.0485 17.6066C36.2052 15.0642 48.8368 1.50435 37.0527 2.71504C30.2728 3.48182 22.0401 9.73709 18.6501 13.7727C23.3718 13.2078 28.1743 15.2659 32.0485 17.6066ZM20.3451 28.1397C24.1386 32.3771 29.3042 36.4935 34.8735 37.9867C38.102 38.8342 41.6534 38.471 40.3619 33.8703C39.0302 29.6329 35.6402 25.9201 32.331 23.0951C31.4028 23.7408 30.3535 24.4269 29.3042 24.8708C26.4793 26.4447 23.4525 27.5747 20.3451 28.1397Z" fill="#848484"/>
<path d="M18.5286 16.7592C21.7572 16.4767 25.2278 18.1717 27.8914 19.8666C25.3489 21.0773 22.5239 21.8441 19.5779 22.0055C15.2598 22.0459 14.3719 17.1627 18.5286 16.7592Z" fill="white"/>
</g>
<defs>
<clipPath id="clip0">
<rect width="242" height="48" fill="white" transform="translate(0.943359)"/>
</clipPath>
</defs>
</svg>
