<svg width="394" height="381" viewBox="0 0 394 381" fill="none" xmlns="http://www.w3.org/2000/svg">
<path d="M3.34374 124.23C25.7453 119.245 40.4348 118.855 66.3066 124.328C67.9502 124.676 68.92 126.382 68.3888 127.975L65.433 136.843C65.2392 137.424 65.2392 138.052 65.433 138.634L67.8704 145.946C68.5509 147.988 66.794 150.015 64.6707 149.664C42.8132 146.051 28.172 146.348 5.14016 149.705C2.921 150.028 1.20042 147.782 2.11123 145.733L5.15308 138.888C5.47852 138.156 5.47852 137.32 5.15309 136.588L1.39034 128.122C0.668848 126.499 1.60967 124.616 3.34374 124.23Z" fill="#F2F0FA"/>
<path d="M373.132 140.164C383.746 160.512 387.924 174.6 389.334 201.007C389.423 202.684 388.027 204.063 386.35 203.962L377.019 203.402C376.408 203.365 375.801 203.528 375.289 203.865L368.857 208.112C367.061 209.298 364.649 208.126 364.438 205.984C362.27 183.936 358.194 169.871 348.99 148.493C348.104 146.433 349.828 144.189 352.044 144.539L359.442 145.705C360.233 145.83 361.041 145.614 361.664 145.11L368.868 139.284C370.249 138.167 372.31 138.589 373.132 140.164Z" fill="#FEF6EB"/>
<path d="M167.668 196.378C184.575 180.859 197.102 173.177 222.244 164.981C223.841 164.46 225.534 165.452 225.871 167.098L227.745 176.255C227.867 176.856 228.182 177.4 228.64 177.807L234.407 182.921C236.017 184.348 235.509 186.982 233.495 187.74C212.76 195.54 200.228 203.118 181.961 217.541C180.201 218.931 177.587 217.845 177.351 215.615L176.563 208.167C176.479 207.37 176.061 206.646 175.413 206.175L167.922 200.724C166.485 199.679 166.359 197.579 167.668 196.378Z" fill="#EFFAF9"/>
<path d="M276.143 234.053C272.148 256.652 266.869 270.366 251.884 292.155C250.932 293.539 248.985 293.78 247.717 292.678L240.664 286.545C240.201 286.143 239.621 285.901 239.01 285.857L231.322 285.301C229.175 285.146 227.978 282.745 229.117 280.92C240.843 262.123 246.189 248.489 251.93 225.933C252.483 223.76 255.218 223.034 256.761 224.661L261.913 230.097C262.464 230.679 263.236 231 264.037 230.98L273.299 230.756C275.075 230.713 276.452 232.304 276.143 234.053Z" fill="#EEFCF2"/>
<path d="M86.9015 38.8157C104.302 23.8521 117.071 16.5791 142.465 9.20089C144.078 8.73216 145.738 9.77864 146.021 11.4345L147.598 20.6477C147.701 21.2516 147.998 21.8058 148.443 22.2269L154.041 27.5248C155.605 29.0039 155.011 31.6199 152.974 32.3121C131.997 39.4377 119.227 46.6061 100.502 60.4304C98.6982 61.7624 96.1213 60.5931 95.9577 58.3565L95.4113 50.8867C95.3528 50.0876 94.9585 49.3506 94.3262 48.8584L87.0147 43.1684C85.6128 42.0773 85.5545 39.974 86.9015 38.8157Z" fill="#EEFCF2"/>
<path d="M162.355 333.085C145.447 348.603 132.921 356.286 107.779 364.481C106.181 365.002 104.489 364.01 104.152 362.364L102.278 353.207C102.155 352.606 101.841 352.062 101.382 351.656L95.6153 346.542C94.0052 345.114 94.5133 342.48 96.5275 341.722C117.263 333.922 129.794 326.344 148.062 311.921C149.822 310.532 152.435 311.617 152.671 313.847L153.459 321.295C153.543 322.092 153.961 322.816 154.609 323.287L162.101 328.738C163.537 329.783 163.664 331.883 162.355 333.085Z" fill="#EBEFFF"/>
<path d="M190.098 125.677C191.08 102.749 194.505 88.4588 206.488 64.8852C207.25 63.3876 209.148 62.8922 210.55 63.8179L218.35 68.968C218.862 69.3056 219.469 69.4683 220.08 69.4316L227.774 68.9697C229.923 68.8408 231.426 71.0625 230.537 73.0226C221.391 93.2004 217.888 107.42 215.169 130.535C214.908 132.763 212.292 133.843 210.548 132.433L204.725 127.723C204.102 127.219 203.294 127.003 202.503 127.128L193.351 128.571C191.596 128.848 190.022 127.452 190.098 125.677Z" fill="#FEF6EB"/>
<path d="M54.1663 216.753C55.1483 239.682 58.5738 253.972 70.5567 277.546C71.3179 279.043 73.2165 279.538 74.6184 278.613L82.4187 273.463C82.93 273.125 83.5371 272.962 84.1487 272.999L91.8427 273.461C93.9909 273.59 95.494 271.368 94.6055 269.408C85.4593 249.23 81.9567 235.011 79.2379 211.895C78.9759 209.668 76.3605 208.588 74.6167 209.998L68.7931 214.707C68.17 215.211 67.3626 215.428 66.5711 215.303L57.4196 213.859C55.6648 213.583 54.0903 214.979 54.1663 216.753Z" fill="#FFEDED"/>
<path d="M372.182 293.838C351.835 304.452 337.746 308.63 311.34 310.04C309.662 310.129 308.284 308.733 308.384 307.056L308.944 297.726C308.981 297.114 308.819 296.507 308.481 295.996L304.234 289.563C303.048 287.767 304.221 285.355 306.362 285.144C328.41 282.976 342.476 278.9 363.854 269.696C365.914 268.81 368.157 270.534 367.808 272.75L366.641 280.148C366.516 280.939 366.732 281.747 367.236 282.37L373.062 289.574C374.179 290.955 373.757 293.017 372.182 293.838Z" fill="#FFEDED"/>
<path d="M210.074 3.87407C232.475 -1.11177 247.165 -1.50149 273.037 3.97176C274.68 4.31947 275.65 6.02513 275.119 7.61889L272.163 16.4863C271.969 17.0676 271.969 17.696 272.163 18.2773L274.6 25.5897C275.281 27.6313 273.524 29.6582 271.401 29.3073C249.543 25.6951 234.902 25.992 211.87 29.3487C209.651 29.6721 207.93 27.4254 208.841 25.3761L211.883 18.532C212.209 17.7997 212.209 16.9639 211.883 16.2317L208.12 7.7655C207.399 6.14212 208.34 4.26002 210.074 3.87407Z" fill="#F2F0FA"/>
<rect x="242.129" y="65.134" width="125.467" height="125.467" rx="62.7335" fill="#B8006E"/>
<line x1="285.518" y1="127.868" x2="329.954" y2="127.868" stroke="#FFFAFD" stroke-width="7.84168" stroke-linecap="round" stroke-linejoin="round"/>
<path d="M292.201 140.789L279.28 127.868L292.201 114.947" stroke="#FFFAFD" stroke-width="7.84168" stroke-linecap="round" stroke-linejoin="round"/>
<circle cx="334.166" cy="65.134" r="25.4872" fill="#974BFD"/>
<rect x="127.437" y="229.385" width="125.467" height="125.467" rx="62.7335" fill="#EF8E06"/>
<g clip-path="url(#clip0)">
<line x1="197.223" y1="262.205" x2="163.953" y2="295.474" stroke="#FFFDFA" stroke-width="7.84168" stroke-linecap="round" stroke-linejoin="round"/>
<path d="M157.485 283.671V301.944H175.758" stroke="#FFFDFA" stroke-width="7.84168" stroke-linecap="round" stroke-linejoin="round"/>
<line x1="181.167" y1="322.721" x2="214.436" y2="289.452" stroke="white" stroke-width="7.84168" stroke-linecap="round" stroke-linejoin="round"/>
<path d="M220.905 301.255V282.982H202.632" stroke="white" stroke-width="7.84168" stroke-linecap="round" stroke-linejoin="round"/>
</g>
<circle cx="225.137" cy="355.405" r="25.4872" fill="#974BFD"/>
<rect x="50.0854" y="63.7291" width="125.467" height="125.467" rx="62.7335" fill="#167932"/>
<line x1="132.163" y1="126.462" x2="87.7265" y2="126.462" stroke="#F9FFFA" stroke-width="7.84168" stroke-linecap="round" stroke-linejoin="round"/>
<path d="M125.479 113.541L138.4 126.462L125.479 139.383" stroke="#F9FFFA" stroke-width="7.84168" stroke-linecap="round" stroke-linejoin="round"/>
<circle cx="77.8114" cy="66.8806" r="25.4872" fill="#974BFD"/>
<defs>
<clipPath id="clip0">
<rect width="83.6446" height="83.6446" fill="white" transform="translate(148.348 250.296)"/>
</clipPath>
</defs>
</svg>
