<svg width="409" height="329" viewBox="0 0 409 329" fill="none" xmlns="http://www.w3.org/2000/svg">
<g clip-path="url(#clip0)">
<path d="M398.906 178.821H183.993C178.556 178.821 174.149 183.228 174.149 188.664V318.268C174.149 323.704 178.556 328.111 183.993 328.111H398.906C404.342 328.111 408.749 323.704 408.749 318.268V188.664C408.749 183.228 404.342 178.821 398.906 178.821Z" fill="#2C5AFF"/>
<path opacity="0.6" d="M201.849 241.982V227.053H204.578L211.595 237.567V227.053H214.325V241.982H211.595L204.578 231.489V241.982H201.849ZM223.746 242.239C222.337 242.239 221.108 241.918 220.055 241.278C219.004 240.639 218.186 239.75 217.603 238.612C217.02 237.46 216.729 236.124 216.729 234.603C216.729 233.067 217.027 231.716 217.624 230.551C218.236 229.37 219.096 228.453 220.205 227.799C221.328 227.132 222.657 226.797 224.193 226.797C225.942 226.797 227.392 227.217 228.544 228.056C229.696 228.894 230.442 230.053 230.783 231.532H227.733C227.506 230.836 227.094 230.294 226.497 229.91C225.899 229.513 225.132 229.313 224.193 229.313C222.7 229.313 221.549 229.79 220.738 230.743C219.928 231.681 219.522 232.975 219.522 234.625C219.522 236.273 219.921 237.553 220.717 238.463C221.527 239.358 222.622 239.807 224.001 239.807C225.352 239.807 226.368 239.444 227.051 238.719C227.748 237.98 228.167 237.013 228.309 235.819H224.534V233.771H231.061V241.982H228.544L228.331 240.02C227.847 240.731 227.243 241.278 226.517 241.662C225.793 242.046 224.869 242.239 223.746 242.239ZM233.714 241.982V227.053H236.444L243.461 237.567V227.053H246.19V241.982H243.461L236.444 231.489V241.982H233.714ZM257.196 241.982L253.249 227.053H256.172L258.859 238.932L262.015 227.053H265.023L268.094 238.932L270.781 227.053H273.724L269.672 241.982H266.43L263.465 230.913L260.415 241.982H257.196ZM273.244 241.982L278.703 227.053H281.775L287.234 241.982H284.333L283.139 238.527H277.317L276.101 241.982H273.244ZM278.063 236.394H282.392L280.217 230.188L278.063 236.394ZM289.157 241.982V227.053H291.887V239.849H298.498V241.982H289.157ZM300.903 241.982V227.053H303.634V239.849H310.245V241.982H300.903ZM312.65 241.982V227.053H322.397V229.25H315.38V233.344H321.757V235.477H315.38V239.786H322.397V241.982H312.65ZM328.456 241.982V229.25H324.105V227.053H335.559V229.25H331.186V241.982H328.456Z" fill="white"/>
<path d="M234.357 293.8C232.588 293.8 231.061 293.49 229.775 292.869C228.511 292.249 227.512 291.399 226.777 290.32C226.065 289.218 225.652 287.977 225.537 286.6H229.843C230.05 287.587 230.555 288.413 231.359 289.08C232.163 289.722 233.162 290.045 234.357 290.045C235.643 290.045 236.688 289.573 237.491 288.632C238.318 287.69 238.732 286.519 238.732 285.117C238.732 283.671 238.318 282.522 237.491 281.672C236.688 280.822 235.666 280.399 234.425 280.399C233.392 280.399 232.496 280.65 231.738 281.156C230.98 281.661 230.44 282.293 230.119 283.051H225.882L227.948 269.27H241.316V273.129H231.256L230.153 278.71C230.659 278.159 231.348 277.711 232.221 277.366C233.093 276.999 234.07 276.816 235.149 276.816C236.871 276.816 238.307 277.205 239.455 277.987C240.604 278.744 241.476 279.755 242.073 281.018C242.671 282.258 242.97 283.614 242.97 285.083C242.97 286.76 242.602 288.253 241.867 289.562C241.155 290.871 240.144 291.905 238.835 292.663C237.549 293.42 236.056 293.8 234.357 293.8ZM244.229 297.383L246.192 288.804H250.464L247.122 297.383H244.229ZM254.456 293.386L263.552 273.025H251.666V269.27H268.099V272.405L259.038 293.386H254.456ZM280.149 293.8C277.922 293.8 276.016 293.283 274.431 292.249C272.846 291.193 271.617 289.735 270.744 287.874C269.894 285.99 269.469 283.808 269.469 281.328C269.469 278.871 269.894 276.7 270.744 274.817C271.617 272.934 272.846 271.475 274.431 270.441C276.016 269.385 277.922 268.857 280.149 268.857C282.377 268.857 284.283 269.385 285.868 270.441C287.453 271.475 288.671 272.934 289.521 274.817C290.393 276.7 290.83 278.871 290.83 281.328C290.83 283.808 290.393 285.99 289.521 287.874C288.671 289.735 287.453 291.193 285.868 292.249C284.283 293.283 282.377 293.8 280.149 293.8ZM280.149 289.837C281.964 289.837 283.445 289.08 284.593 287.563C285.742 286.048 286.316 283.969 286.316 281.328C286.316 278.687 285.742 276.608 284.593 275.093C283.445 273.577 281.964 272.819 280.149 272.819C278.312 272.819 276.819 273.577 275.67 275.093C274.545 276.608 273.982 278.687 273.982 281.328C273.982 283.969 274.545 286.048 275.67 287.563C276.819 289.08 278.312 289.837 280.149 289.837ZM303.625 293.8C301.396 293.8 299.49 293.283 297.906 292.249C296.321 291.193 295.092 289.735 294.219 287.874C293.369 285.99 292.944 283.808 292.944 281.328C292.944 278.871 293.369 276.7 294.219 274.817C295.092 272.934 296.321 271.475 297.906 270.441C299.49 269.385 301.396 268.857 303.625 268.857C305.852 268.857 307.758 269.385 309.343 270.441C310.928 271.475 312.146 272.934 312.995 274.817C313.868 276.7 314.304 278.871 314.304 281.328C314.304 283.808 313.868 285.99 312.995 287.874C312.146 289.735 310.928 291.193 309.343 292.249C307.758 293.283 305.852 293.8 303.625 293.8ZM303.625 289.837C305.439 289.837 306.921 289.08 308.069 287.563C309.218 286.048 309.792 283.969 309.792 281.328C309.792 278.687 309.218 276.608 308.069 275.093C306.921 273.577 305.439 272.819 303.625 272.819C301.787 272.819 300.294 273.577 299.145 275.093C298.021 276.608 297.458 278.687 297.458 281.328C297.458 283.969 298.021 286.048 299.145 287.563C300.294 289.08 301.787 289.837 303.625 289.837ZM317.624 293.628C316.82 293.628 316.153 293.375 315.626 292.869C315.12 292.364 314.867 291.756 314.867 291.044C314.867 290.309 315.12 289.688 315.626 289.183C316.153 288.678 316.82 288.425 317.624 288.425C318.427 288.425 319.083 288.678 319.587 289.183C320.116 289.688 320.38 290.309 320.38 291.044C320.38 291.756 320.116 292.364 319.587 292.869C319.083 293.375 318.427 293.628 317.624 293.628ZM331.634 293.8C329.981 293.8 328.487 293.513 327.155 292.939C325.824 292.342 324.755 291.503 323.952 290.423C323.17 289.344 322.78 288.092 322.78 286.668C322.78 285.198 323.159 283.912 323.916 282.809C324.698 281.708 325.72 280.915 326.983 280.433C325.881 279.95 325.008 279.262 324.364 278.365C323.722 277.447 323.4 276.425 323.4 275.299C323.4 274.151 323.71 273.095 324.33 272.13C324.951 271.142 325.869 270.35 327.086 269.752C328.327 269.155 329.843 268.857 331.634 268.857C333.426 268.857 334.93 269.155 336.148 269.752C337.365 270.35 338.283 271.142 338.904 272.13C339.523 273.095 339.833 274.151 339.833 275.299C339.833 276.402 339.501 277.424 338.834 278.365C338.192 279.284 337.33 279.974 336.25 280.433C337.537 280.915 338.558 281.708 339.317 282.809C340.075 283.912 340.454 285.198 340.454 286.668C340.454 288.092 340.063 289.344 339.282 290.423C338.502 291.503 337.434 292.342 336.078 292.939C334.746 293.513 333.264 293.8 331.634 293.8ZM331.634 279.124C332.828 279.124 333.77 278.813 334.459 278.193C335.149 277.573 335.493 276.78 335.493 275.816C335.493 274.759 335.149 273.932 334.459 273.335C333.793 272.738 332.852 272.44 331.634 272.44C330.393 272.44 329.441 272.738 328.774 273.335C328.109 273.932 327.775 274.759 327.775 275.816C327.775 276.803 328.109 277.607 328.774 278.227C329.464 278.825 330.417 279.124 331.634 279.124ZM331.634 290.113C333.104 290.113 334.218 289.758 334.975 289.046C335.734 288.311 336.112 287.391 336.112 286.29C336.112 285.072 335.711 284.118 334.907 283.43C334.126 282.741 333.035 282.396 331.634 282.396C330.233 282.396 329.12 282.741 328.292 283.43C327.488 284.118 327.086 285.072 327.086 286.29C327.086 287.391 327.465 288.311 328.223 289.046C329.005 289.758 330.142 290.113 331.634 290.113ZM352.454 293.8C350.686 293.8 349.158 293.49 347.872 292.869C346.609 292.249 345.611 291.399 344.875 290.32C344.163 289.218 343.75 287.977 343.635 286.6H347.942C348.148 287.587 348.654 288.413 349.457 289.08C350.261 289.722 351.26 290.045 352.454 290.045C353.74 290.045 354.785 289.573 355.589 288.632C356.417 287.69 356.83 286.519 356.83 285.117C356.83 283.671 356.417 282.522 355.589 281.672C354.785 280.822 353.763 280.399 352.524 280.399C351.489 280.399 350.594 280.65 349.836 281.156C349.079 281.661 348.539 282.293 348.217 283.051H343.979L346.047 269.27H359.414V273.129H349.354L348.251 278.71C348.756 278.159 349.445 277.711 350.318 277.366C351.191 276.999 352.167 276.816 353.247 276.816C354.97 276.816 356.405 277.205 357.554 277.987C358.702 278.744 359.575 279.755 360.172 281.018C360.769 282.258 361.067 283.614 361.067 285.083C361.067 286.76 360.7 288.253 359.965 289.562C359.253 290.871 358.243 291.905 356.933 292.663C355.646 293.42 354.154 293.8 352.454 293.8Z" fill="white"/>
<path d="M203.378 281.857V268.076H205.898L212.375 277.782V268.076H214.895V281.857H212.375L205.898 272.171V281.857H203.378Z" fill="white"/>
<path d="M225.007 0H10.0938C4.6575 0 0.250488 4.40701 0.250488 9.84334V139.447C0.250488 144.884 4.6575 149.291 10.0938 149.291H225.007C230.443 149.291 234.85 144.884 234.85 139.447V9.84334C234.85 4.40701 230.443 0 225.007 0Z" fill="#974BFD"/>
<path opacity="0.6" d="M27.1459 63.4173C26.0511 63.4173 25.0629 63.2041 24.1814 62.7775C23.2999 62.3368 22.5961 61.6756 22.07 60.7941C21.5581 59.9126 21.3022 58.7964 21.3022 57.4457V48.2324H24.0321V57.4671C24.0321 58.6329 24.3094 59.5003 24.8639 60.069C25.4326 60.6377 26.2146 60.9221 27.2098 60.9221C28.1909 60.9221 28.9658 60.6377 29.5345 60.069C30.1033 59.5003 30.3876 58.6329 30.3876 57.4671V48.2324H33.1176V57.4457C33.1176 58.7964 32.8473 59.9126 32.3071 60.7941C31.7668 61.6756 31.0417 62.3368 30.1317 62.7775C29.2359 63.2041 28.2407 63.4173 27.1459 63.4173ZM41.0015 63.4173C39.9066 63.4173 38.9398 63.2325 38.101 62.8628C37.262 62.479 36.6009 61.9387 36.1175 61.242C35.6341 60.5311 35.3853 59.6709 35.3711 58.6614H38.2502C38.2787 59.3581 38.5275 59.9481 38.9967 60.4315C39.4801 60.9008 40.1412 61.1354 40.9802 61.1354C41.7052 61.1354 42.2811 60.9647 42.7076 60.6235C43.1342 60.268 43.3475 59.7989 43.3475 59.2159C43.3475 58.6046 43.1555 58.1282 42.7716 57.787C42.402 57.4457 41.9043 57.1685 41.2787 56.9552C40.6531 56.742 39.9849 56.5145 39.274 56.2727C38.1223 55.8746 37.2407 55.3628 36.6294 54.7372C36.0322 54.1116 35.7336 53.2798 35.7336 52.2419C35.7194 51.3604 35.9255 50.6069 36.3521 49.9812C36.7929 49.3413 37.3901 48.8509 38.1436 48.5097C38.8971 48.1542 39.7644 47.9765 40.7455 47.9765C41.7407 47.9765 42.6152 48.1542 43.3688 48.5097C44.1365 48.8651 44.7337 49.3628 45.1603 50.0026C45.6011 50.6424 45.8356 51.403 45.864 52.2846H42.9422C42.928 51.7584 42.7219 51.2963 42.3237 50.8983C41.9399 50.486 41.3995 50.2798 40.7029 50.2798C40.1057 50.2655 39.601 50.4149 39.1886 50.7276C38.7905 51.0262 38.5914 51.467 38.5914 52.05C38.5914 52.5476 38.7479 52.9457 39.0607 53.2443C39.3734 53.5286 39.8 53.7704 40.3403 53.9694C40.8806 54.1685 41.4991 54.3817 42.1958 54.6092C42.9352 54.8651 43.6105 55.1637 44.2219 55.5049C44.8332 55.8462 45.3238 56.3012 45.6935 56.8699C46.0632 57.4244 46.2479 58.1425 46.2479 59.0239C46.2479 59.8059 46.0489 60.5311 45.6507 61.1994C45.2527 61.8676 44.6626 62.4079 43.8806 62.8202C43.0986 63.2183 42.1389 63.4173 41.0015 63.4173ZM48.6297 63.1614V48.2324H53.7269C55.4759 48.2324 56.9118 48.5452 58.0351 49.1708C59.1726 49.7821 60.0114 50.6495 60.5517 51.7727C61.1062 52.8818 61.3834 54.1898 61.3834 55.6969C61.3834 57.2041 61.1062 58.5192 60.5517 59.6425C60.0114 60.7514 59.1726 61.6188 58.0351 62.2443C56.9118 62.8558 55.4759 63.1614 53.7269 63.1614H48.6297ZM51.3596 60.8154H53.599C54.8502 60.8154 55.8384 60.6164 56.5635 60.2182C57.2887 59.8059 57.8076 59.223 58.1203 58.4695C58.4332 57.7017 58.5896 56.7775 58.5896 55.6969C58.5896 54.6306 58.4332 53.7134 58.1203 52.9457C57.8076 52.1779 57.2887 51.5879 56.5635 51.1756C55.8384 50.7632 54.8502 50.5571 53.599 50.5571H51.3596V60.8154ZM71.9024 63.1614L67.9568 48.2324H70.8787L73.566 60.1116L76.7224 48.2324H79.7295L82.8007 60.1116L85.4879 48.2324H88.431L84.3788 63.1614H81.1371L78.1726 52.0926L75.1229 63.1614H71.9024ZM87.9502 63.1614L93.41 48.2324H96.4811L101.941 63.1614H99.0404L97.8461 59.7065H92.0237L90.8081 63.1614H87.9502ZM92.7702 57.5738H97.0996L94.9242 51.3674L92.7702 57.5738ZM103.864 63.1614V48.2324H106.594V61.0287H113.205V63.1614H103.864ZM115.61 63.1614V48.2324H118.34V61.0287H124.952V63.1614H115.61ZM127.357 63.1614V48.2324H137.104V50.4291H130.087V54.5239H136.464V56.6566H130.087V60.9647H137.104V63.1614H127.357ZM143.164 63.1614V50.4291H138.813V48.2324H150.266V50.4291H145.893V63.1614H143.164Z" fill="white"/>
<path d="M52.668 114.979C50.8535 114.979 49.3262 114.646 48.0859 113.98C46.8457 113.314 45.8465 112.418 45.0887 111.293C44.3307 110.167 43.7794 108.915 43.4349 107.537C43.1134 106.159 42.9526 104.747 42.9526 103.3C42.9526 100.613 43.3316 98.2814 44.0895 96.3062C44.8475 94.308 45.9385 92.7692 47.3624 91.6896C48.7864 90.5872 50.509 90.0359 52.5302 90.0359C54.1838 90.0359 55.5849 90.3689 56.7333 91.0351C57.9046 91.6782 58.8119 92.528 59.4549 93.5844C60.0981 94.641 60.4771 95.7779 60.5919 96.9952H56.4921C56.2855 95.9386 55.8375 95.1234 55.1485 94.5492C54.4594 93.975 53.5752 93.6879 52.4958 93.6879C50.9568 93.6879 49.7166 94.3998 48.7749 95.8238C47.8333 97.2249 47.328 99.3724 47.2591 102.266C47.8103 101.325 48.6372 100.544 49.7396 99.9236C50.842 99.3035 52.0708 98.9934 53.4259 98.9934C54.758 98.9934 56.0098 99.315 57.1812 99.958C58.3526 100.601 59.2942 101.508 60.0062 102.68C60.7412 103.851 61.1087 105.229 61.1087 106.814C61.1087 108.261 60.7527 109.604 60.0406 110.845C59.3516 112.085 58.364 113.084 57.0778 113.842C55.8146 114.6 54.3446 114.979 52.668 114.979ZM52.4269 111.189C53.713 111.189 54.7695 110.799 55.5964 110.018C56.4462 109.214 56.8711 108.204 56.8711 106.986C56.8711 105.7 56.4462 104.666 55.5964 103.886C54.7465 103.105 53.6671 102.714 52.3579 102.714C51.5081 102.714 50.7387 102.909 50.0496 103.3C49.3836 103.667 48.8553 104.173 48.4649 104.816C48.0745 105.436 47.8792 106.136 47.8792 106.917C47.8792 108.158 48.3042 109.18 49.1539 109.984C50.0267 110.787 51.1177 111.189 52.4269 111.189ZM62.5976 118.562L64.5613 109.984H68.8333L65.4915 118.562H62.5976ZM79.9569 114.979C78.3032 114.979 76.8103 114.692 75.4782 114.118C74.146 113.521 73.078 112.682 72.2742 111.603C71.4933 110.523 71.1028 109.271 71.1028 107.847C71.1028 106.378 71.4818 105.091 72.2398 103.989C73.0206 102.886 74.0427 102.094 75.3059 101.612C74.2034 101.129 73.3307 100.44 72.6876 99.5447C72.0445 98.626 71.723 97.6038 71.723 96.4784C71.723 95.33 72.033 94.2735 72.6531 93.3088C73.2733 92.3212 74.192 91.5288 75.4092 90.9317C76.6496 90.3345 78.1654 90.0359 79.9569 90.0359C81.7484 90.0359 83.2528 90.3345 84.4701 90.9317C85.6873 91.5288 86.606 92.3212 87.2263 93.3088C87.8464 94.2735 88.1564 95.33 88.1564 96.4784C88.1564 97.5809 87.8233 98.6029 87.1573 99.5447C86.5142 100.463 85.6529 101.152 84.5735 101.612C85.8596 102.094 86.8817 102.886 87.6396 103.989C88.3975 105.091 88.7766 106.378 88.7766 107.847C88.7766 109.271 88.386 110.523 87.6052 111.603C86.8243 112.682 85.7562 113.521 84.4012 114.118C83.069 114.692 81.5876 114.979 79.9569 114.979ZM79.9569 100.303C81.1512 100.303 82.0929 99.9925 82.7819 99.3724C83.471 98.7522 83.8155 97.9598 83.8155 96.9952C83.8155 95.9386 83.471 95.1119 82.7819 94.5147C82.1159 93.9176 81.1742 93.619 79.9569 93.619C78.7167 93.619 77.7634 93.9176 77.0974 94.5147C76.4314 95.1119 76.0983 95.9386 76.0983 96.9952C76.0983 97.9828 76.4314 98.7867 77.0974 99.4068C77.7864 100.004 78.7396 100.303 79.9569 100.303ZM79.9569 111.293C81.4269 111.293 82.5408 110.937 83.2987 110.225C84.0567 109.49 84.4356 108.571 84.4356 107.469C84.4356 106.251 84.0337 105.298 83.2298 104.609C82.4489 103.92 81.358 103.575 79.9569 103.575C78.5559 103.575 77.4419 103.92 76.615 104.609C75.8112 105.298 75.4092 106.251 75.4092 107.469C75.4092 108.571 75.7883 109.49 76.5462 110.225C77.3271 110.937 78.464 111.293 79.9569 111.293ZM102.017 114.979C99.7896 114.979 97.8833 114.462 96.2985 113.429C94.7138 112.372 93.485 110.914 92.6122 109.053C91.7624 107.17 91.3374 104.988 91.3374 102.507C91.3374 100.05 91.7624 97.8795 92.6122 95.9961C93.485 94.1127 94.7138 92.6543 96.2985 91.6208C97.8833 90.5642 99.7896 90.0359 102.017 90.0359C104.245 90.0359 106.152 90.5642 107.737 91.6208C109.321 92.6543 110.539 94.1127 111.388 95.9961C112.261 97.8795 112.697 100.05 112.697 102.507C112.697 104.988 112.261 107.17 111.388 109.053C110.539 110.914 109.321 112.372 107.737 113.429C106.152 114.462 104.245 114.979 102.017 114.979ZM102.017 111.017C103.832 111.017 105.313 110.259 106.462 108.743C107.61 107.227 108.184 105.149 108.184 102.507C108.184 99.8662 107.61 97.7876 106.462 96.2718C105.313 94.7558 103.832 93.9979 102.017 93.9979C100.18 93.9979 98.6871 94.7558 97.5388 96.2718C96.4134 97.7876 95.8507 99.8662 95.8507 102.507C95.8507 105.149 96.4134 107.227 97.5388 108.743C98.6871 110.259 100.18 111.017 102.017 111.017ZM125.493 114.979C123.264 114.979 121.358 114.462 119.773 113.429C118.189 112.372 116.961 110.914 116.087 109.053C115.238 107.17 114.813 104.988 114.813 102.507C114.813 100.05 115.238 97.8795 116.087 95.9961C116.961 94.1127 118.189 92.6543 119.773 91.6208C121.358 90.5642 123.264 90.0359 125.493 90.0359C127.72 90.0359 129.627 90.5642 131.212 91.6208C132.796 92.6543 134.013 94.1127 134.863 95.9961C135.736 97.8795 136.172 100.05 136.172 102.507C136.172 104.988 135.736 107.17 134.863 109.053C134.013 110.914 132.796 112.372 131.212 113.429C129.627 114.462 127.72 114.979 125.493 114.979ZM125.493 111.017C127.307 111.017 128.789 110.259 129.937 108.743C131.085 107.227 131.659 105.149 131.659 102.507C131.659 99.8662 131.085 97.7876 129.937 96.2718C128.789 94.7558 127.307 93.9979 125.493 93.9979C123.655 93.9979 122.162 94.7558 121.014 96.2718C119.888 97.7876 119.326 99.8662 119.326 102.507C119.326 105.149 119.888 107.227 121.014 108.743C122.162 110.259 123.655 111.017 125.493 111.017ZM139.492 114.807C138.688 114.807 138.022 114.554 137.494 114.048C136.989 113.544 136.736 112.935 136.736 112.223C136.736 111.488 136.989 110.868 137.494 110.362C138.022 109.857 138.688 109.604 139.492 109.604C140.296 109.604 140.95 109.857 141.456 110.362C141.984 110.868 142.248 111.488 142.248 112.223C142.248 112.935 141.984 113.544 141.456 114.048C140.95 114.554 140.296 114.807 139.492 114.807ZM153.502 114.979C151.849 114.979 150.356 114.692 149.023 114.118C147.691 113.521 146.624 112.682 145.82 111.603C145.039 110.523 144.648 109.271 144.648 107.847C144.648 106.378 145.027 105.091 145.785 103.989C146.566 102.886 147.588 102.094 148.851 101.612C147.748 101.129 146.876 100.44 146.233 99.5447C145.589 98.626 145.268 97.6038 145.268 96.4784C145.268 95.33 145.578 94.2735 146.199 93.3088C146.819 92.3212 147.737 91.5288 148.955 90.9317C150.194 90.3345 151.711 90.0359 153.502 90.0359C155.294 90.0359 156.798 90.3345 158.015 90.9317C159.232 91.5288 160.152 92.3212 160.771 93.3088C161.391 94.2735 161.702 95.33 161.702 96.4784C161.702 97.5809 161.368 98.6029 160.703 99.5447C160.059 100.463 159.198 101.152 158.119 101.612C159.405 102.094 160.427 102.886 161.185 103.989C161.943 105.091 162.322 106.378 162.322 107.847C162.322 109.271 161.931 110.523 161.151 111.603C160.369 112.682 159.302 113.521 157.946 114.118C156.614 114.692 155.133 114.979 153.502 114.979ZM153.502 100.303C154.697 100.303 155.638 99.9925 156.327 99.3724C157.016 98.7522 157.36 97.9598 157.36 96.9952C157.36 95.9386 157.016 95.1119 156.327 94.5147C155.662 93.9176 154.72 93.619 153.502 93.619C152.262 93.619 151.309 93.9176 150.643 94.5147C149.977 95.1119 149.644 95.9386 149.644 96.9952C149.644 97.9828 149.977 98.7867 150.643 99.4068C151.331 100.004 152.285 100.303 153.502 100.303ZM153.502 111.293C154.972 111.293 156.086 110.937 156.844 110.225C157.602 109.49 157.981 108.571 157.981 107.469C157.981 106.251 157.579 105.298 156.775 104.609C155.994 103.92 154.903 103.575 153.502 103.575C152.102 103.575 150.987 103.92 150.16 104.609C149.357 105.298 148.955 106.251 148.955 107.469C148.955 108.571 149.333 109.49 150.092 110.225C150.872 110.937 152.009 111.293 153.502 111.293ZM174.735 114.979C172.922 114.979 171.394 114.646 170.154 113.98C168.914 113.314 167.915 112.418 167.157 111.293C166.398 110.167 165.848 108.915 165.503 107.537C165.182 106.159 165.021 104.747 165.021 103.3C165.021 100.613 165.399 98.2814 166.158 96.3062C166.916 94.308 168.007 92.7692 169.43 91.6896C170.854 90.5872 172.577 90.0359 174.598 90.0359C176.252 90.0359 177.653 90.3689 178.802 91.0351C179.973 91.6782 180.88 92.528 181.523 93.5844C182.166 94.641 182.545 95.7779 182.66 96.9952H178.56C178.354 95.9386 177.906 95.1234 177.217 94.5492C176.528 93.975 175.644 93.6879 174.563 93.6879C173.025 93.6879 171.785 94.3998 170.843 95.8238C169.902 97.2249 169.396 99.3724 169.327 102.266C169.879 101.325 170.705 100.544 171.808 99.9236C172.91 99.3035 174.139 98.9934 175.494 98.9934C176.826 98.9934 178.078 99.315 179.249 99.958C180.42 100.601 181.363 101.508 182.075 102.68C182.81 103.851 183.176 105.229 183.176 106.814C183.176 108.261 182.821 109.604 182.109 110.845C181.42 112.085 180.432 113.084 179.146 113.842C177.882 114.6 176.413 114.979 174.735 114.979ZM174.495 111.189C175.781 111.189 176.837 110.799 177.665 110.018C178.514 109.214 178.939 108.204 178.939 106.986C178.939 105.7 178.514 104.666 177.665 103.886C176.815 103.105 175.735 102.714 174.426 102.714C173.576 102.714 172.807 102.909 172.117 103.3C171.452 103.667 170.923 104.173 170.533 104.816C170.142 105.436 169.947 106.136 169.947 106.917C169.947 108.158 170.372 109.18 171.222 109.984C172.095 110.787 173.186 111.189 174.495 111.189Z" fill="white"/>
<path d="M26.7751 104.749V103.233C25.502 103.089 24.4651 102.642 23.6645 101.894C22.864 101.146 22.4505 100.142 22.4243 98.8822H25.082C25.1082 99.4072 25.2658 99.8665 25.5545 100.26C25.8564 100.654 26.2632 100.923 26.7751 101.067V96.9135C26.657 96.8742 26.5322 96.8348 26.401 96.7954C26.2829 96.7561 26.1582 96.7167 26.0269 96.6773C24.9639 96.3098 24.1502 95.8374 23.5858 95.2599C23.0346 94.6824 22.7589 93.9146 22.7589 92.9565C22.7458 91.8278 23.1134 90.9222 23.8614 90.2398C24.6096 89.5441 25.5807 89.1439 26.7751 89.0388V87.4442H28.094V89.0586C29.2752 89.1767 30.2268 89.5901 30.9486 90.2988C31.6836 90.9944 32.0708 91.8934 32.1101 92.9959H29.4131C29.4 92.6153 29.2752 92.2674 29.0391 91.9525C28.8159 91.6244 28.5009 91.3948 28.094 91.2635V94.9251C28.1991 94.9646 28.304 95.004 28.409 95.0433C28.5141 95.0696 28.619 95.1024 28.7241 95.1417C29.4065 95.378 30.0299 95.6536 30.5943 95.9686C31.1586 96.2836 31.6114 96.7036 31.9526 97.2285C32.2939 97.7404 32.4645 98.4031 32.4645 99.2169C32.4645 99.8993 32.2939 100.536 31.9526 101.126C31.6245 101.717 31.1324 102.209 30.4761 102.603C29.833 102.984 29.0391 103.2 28.094 103.253V104.749H26.7751ZM25.397 92.7793C25.397 93.1994 25.5217 93.5406 25.7711 93.8031C26.0204 94.0525 26.355 94.2689 26.7751 94.4527V91.1847C26.3681 91.2635 26.0335 91.4407 25.7711 91.7163C25.5217 91.9918 25.397 92.3463 25.397 92.7793ZM29.7871 99.3941C29.7871 98.8691 29.6297 98.4556 29.3147 98.1539C28.9996 97.8519 28.5928 97.5961 28.094 97.386V101.126C28.619 101.048 29.0325 100.857 29.3344 100.556C29.6362 100.254 29.7871 99.8665 29.7871 99.3941Z" fill="white"/>
</g>
<defs>
<clipPath id="clip0">
<rect width="409" height="328.111" fill="white"/>
</clipPath>
</defs>
</svg>
