<svg width="119" height="48" viewBox="0 0 119 48" fill="none" xmlns="http://www.w3.org/2000/svg">
<g clip-path="url(#clip0)">
<g filter="url(#filter0_d)">
<path d="M66.4206 6.90552V10.5328H66.2317L63.8891 7.35892H59.6573V13.3666H61.981L64.0969 12.233H64.2859V14.9535H64.0969L61.981 13.82H59.6573V19.0908L61.4521 19.941V20.1299H55.5389V19.941L57.0502 19.0908V7.94457L55.5389 7.09444V6.90552H66.4206ZM77.1171 19.2042L78.3451 19.9787V20.1299H75.1334L74.6989 18.543C74.0188 19.5064 73.0175 20.3566 71.5062 20.3566C69.5036 20.3566 68.4268 19.242 68.4268 17.2772V11.5529L67.0855 10.7784V10.6272H70.8827V17.1072C70.8827 18.4296 71.3928 19.2042 72.5452 19.2042C73.452 19.2042 74.1322 18.7508 74.6611 18.0329V11.5529L73.3198 10.7784V10.6272H77.1171V19.2042ZM86.0188 11.0429H83.1661V17.7117C83.1661 18.7319 83.5251 19.2986 84.2618 19.2986C84.7908 19.2986 85.2442 19.0153 85.6598 18.3163L86.0188 18.5052C85.452 19.6765 84.6208 20.3566 83.2039 20.3566C81.5792 20.3566 80.7102 19.412 80.7102 18.014V11.0429H79.2933V10.665L80.559 10.3061L83.0339 8.00125H83.1661V10.6272H86.0188V11.0429ZM96.7908 19.2042L98.0188 19.9787V20.1299H94.8071L94.3726 18.543C93.6925 19.5064 92.6912 20.3566 91.1799 20.3566C89.1773 20.3566 88.1005 19.242 88.1005 17.2772V11.5529L86.7592 10.7784V10.6272H90.5565V17.1072C90.5565 18.4296 91.0665 19.2042 92.2189 19.2042C93.1258 19.2042 93.8059 18.7508 94.3348 18.0329V11.5529L92.9935 10.7784V10.6272H96.7908V19.2042ZM105.768 10.4761C106.24 10.4761 106.58 10.5139 107.091 10.6272L106.996 13.6499H106.845L105.012 11.4207C104.257 11.6285 103.69 12.1575 103.255 12.9509V19.242L104.956 19.9787V20.1299H99.5715V19.9787L100.799 19.242V11.5529L99.4582 10.7784V10.6272H102.783L103.255 12.3275C103.841 11.2318 104.672 10.4761 105.768 10.4761ZM117.066 17.2016L117.425 17.3717C116.783 18.9964 115.498 20.3566 113.042 20.3566C110.227 20.3566 108.187 18.3918 108.187 15.5014C108.187 12.2519 110.303 10.4005 113.061 10.4005C115.706 10.4005 117.387 11.9119 117.387 14.5945V15.1802H110.813C110.85 17.8251 112.116 19.2042 113.873 19.2042C115.498 19.2042 116.424 18.3163 117.066 17.2016ZM113.08 10.8162C111.814 10.8162 110.869 12.1008 110.813 14.7646H114.931V14.3678C114.893 11.9119 114.308 10.8162 113.08 10.8162ZM67.3086 39.7945L68.6688 40.7013V40.8903H63.0768V40.7013L64.6448 39.8701L63.1523 36.1106H58.1271L56.918 39.2844L59.185 40.7013V40.8903H54.7832V40.7013L56.4457 39.2278L60.3563 28.9883L59.8462 27.8737V27.6659H62.4911L67.3086 39.7945ZM58.2971 35.6572H62.9823L60.6019 29.6118L58.2971 35.6572ZM74.2077 27.4392C75.1712 27.4392 75.7946 27.5337 76.8148 27.7037L76.6826 30.5186H76.5314L74.8312 27.8926C74.68 27.8737 74.5478 27.8548 74.4344 27.8548C73.6976 27.8548 73.282 28.3649 73.282 29.5929V31.3876H76.2481V31.8032H73.282V40.0023L74.9823 40.7391V40.8903H69.5981V40.7391L70.8261 40.0023V31.8032H69.3714V31.3876H70.8261V30.7075C70.8261 28.4783 72.1107 27.4392 74.2077 27.4392ZM83.4337 31.2365C83.906 31.2365 84.2461 31.2743 84.7561 31.3876L84.6617 34.4103H84.5106L82.678 32.1811C81.9224 32.3889 81.3556 32.9179 80.9211 33.7113V40.0023L82.6214 40.7391V40.8903H77.2372V40.7391L78.4651 40.0023V32.3133L77.1238 31.5387V31.3876H80.4488L80.9211 33.0879C81.5067 31.9922 82.338 31.2365 83.4337 31.2365ZM90.2951 28.5538L88.6893 30.1219L87.1212 28.5538L88.6893 26.9858L90.2951 28.5538ZM90.0117 40.0023L91.2397 40.7391V40.8903H86.3278V40.7391L87.5558 40.0023V32.3133L86.2144 31.5387V31.3876H90.0117V40.0023ZM100.342 34.9204L98.2073 31.7843C97.8672 31.6521 97.5649 31.5765 97.2249 31.5765C96.0347 31.5765 94.75 32.9368 94.75 35.8272C94.75 38.6232 96.1291 40.0023 97.7538 40.0023C99.303 40.0023 100.172 39.1144 100.758 38.0565L101.117 38.2265C100.531 39.7379 99.3408 41.0981 96.9037 41.117C94.1455 41.1359 92.124 39.1711 92.124 36.1484C92.124 32.9556 94.3155 31.1609 97.0926 31.1609C98.3206 31.1609 99.3974 31.3498 100.625 31.6143L100.493 34.9204H100.342ZM110.504 39.9646L111.732 40.7391V40.8903H108.521L108.086 39.3411C107.349 40.4557 106.272 41.117 105.007 41.117C103.571 41.117 101.946 40.5124 101.946 38.4532C101.946 36.8852 103.269 36.0728 104.799 35.7139C105.951 35.4305 107.104 35.1471 108.048 34.9015V33.4657C108.048 32.2755 107.595 31.5765 106.537 31.5765C106.216 31.5765 105.857 31.6143 105.366 31.7843L103.042 34.7882H102.891L102.758 31.6332C104.289 31.3309 105.573 31.1609 106.915 31.1609C109.427 31.1609 110.504 32.3889 110.504 33.9569V39.9646ZM106.083 40.059C106.801 40.059 107.444 39.6623 108.048 38.831V35.2605C107.349 35.4683 106.65 35.6761 106.102 35.865C104.95 36.2806 104.421 37.0552 104.421 38.132C104.421 39.3222 105.12 40.059 106.083 40.059Z" fill="#848484"/>
</g>
<path d="M66.4206 6.90552V10.5328H66.2317L63.8891 7.35892H59.6573V13.3666H61.981L64.0969 12.233H64.2859V14.9535H64.0969L61.981 13.82H59.6573V19.0908L61.4521 19.941V20.1299H55.5389V19.941L57.0502 19.0908V7.94457L55.5389 7.09444V6.90552H66.4206ZM77.1171 19.2042L78.3451 19.9787V20.1299H75.1334L74.6989 18.543C74.0188 19.5064 73.0175 20.3566 71.5062 20.3566C69.5036 20.3566 68.4268 19.242 68.4268 17.2772V11.5529L67.0855 10.7784V10.6272H70.8827V17.1072C70.8827 18.4296 71.3928 19.2042 72.5452 19.2042C73.452 19.2042 74.1322 18.7508 74.6611 18.0329V11.5529L73.3198 10.7784V10.6272H77.1171V19.2042ZM86.0188 11.0429H83.1661V17.7117C83.1661 18.7319 83.5251 19.2986 84.2618 19.2986C84.7908 19.2986 85.2442 19.0153 85.6598 18.3163L86.0188 18.5052C85.452 19.6765 84.6208 20.3566 83.2039 20.3566C81.5792 20.3566 80.7102 19.412 80.7102 18.014V11.0429H79.2933V10.665L80.559 10.3061L83.0339 8.00125H83.1661V10.6272H86.0188V11.0429ZM96.7908 19.2042L98.0188 19.9787V20.1299H94.8071L94.3726 18.543C93.6925 19.5064 92.6912 20.3566 91.1799 20.3566C89.1773 20.3566 88.1005 19.242 88.1005 17.2772V11.5529L86.7592 10.7784V10.6272H90.5565V17.1072C90.5565 18.4296 91.0665 19.2042 92.2189 19.2042C93.1258 19.2042 93.8059 18.7508 94.3348 18.0329V11.5529L92.9935 10.7784V10.6272H96.7908V19.2042ZM105.768 10.4761C106.24 10.4761 106.58 10.5139 107.091 10.6272L106.996 13.6499H106.845L105.012 11.4207C104.257 11.6285 103.69 12.1575 103.255 12.9509V19.242L104.956 19.9787V20.1299H99.5715V19.9787L100.799 19.242V11.5529L99.4582 10.7784V10.6272H102.783L103.255 12.3275C103.841 11.2318 104.672 10.4761 105.768 10.4761ZM117.066 17.2016L117.425 17.3717C116.783 18.9964 115.498 20.3566 113.042 20.3566C110.227 20.3566 108.187 18.3918 108.187 15.5014C108.187 12.2519 110.303 10.4005 113.061 10.4005C115.706 10.4005 117.387 11.9119 117.387 14.5945V15.1802H110.813C110.85 17.8251 112.116 19.2042 113.873 19.2042C115.498 19.2042 116.424 18.3163 117.066 17.2016ZM113.08 10.8162C111.814 10.8162 110.869 12.1008 110.813 14.7646H114.931V14.3678C114.893 11.9119 114.308 10.8162 113.08 10.8162ZM67.3086 39.7945L68.6688 40.7013V40.8903H63.0768V40.7013L64.6448 39.8701L63.1523 36.1106H58.1271L56.918 39.2844L59.185 40.7013V40.8903H54.7832V40.7013L56.4457 39.2278L60.3563 28.9883L59.8462 27.8737V27.6659H62.4911L67.3086 39.7945ZM58.2971 35.6572H62.9823L60.6019 29.6118L58.2971 35.6572ZM74.2077 27.4392C75.1712 27.4392 75.7946 27.5337 76.8148 27.7037L76.6826 30.5186H76.5314L74.8312 27.8926C74.68 27.8737 74.5478 27.8548 74.4344 27.8548C73.6976 27.8548 73.282 28.3649 73.282 29.5929V31.3876H76.2481V31.8032H73.282V40.0023L74.9823 40.7391V40.8903H69.5981V40.7391L70.8261 40.0023V31.8032H69.3714V31.3876H70.8261V30.7075C70.8261 28.4783 72.1107 27.4392 74.2077 27.4392ZM83.4337 31.2365C83.906 31.2365 84.2461 31.2743 84.7561 31.3876L84.6617 34.4103H84.5106L82.678 32.1811C81.9224 32.3889 81.3556 32.9179 80.9211 33.7113V40.0023L82.6214 40.7391V40.8903H77.2372V40.7391L78.4651 40.0023V32.3133L77.1238 31.5387V31.3876H80.4488L80.9211 33.0879C81.5067 31.9922 82.338 31.2365 83.4337 31.2365ZM90.2951 28.5538L88.6893 30.1219L87.1212 28.5538L88.6893 26.9858L90.2951 28.5538ZM90.0117 40.0023L91.2397 40.7391V40.8903H86.3278V40.7391L87.5558 40.0023V32.3133L86.2144 31.5387V31.3876H90.0117V40.0023ZM100.342 34.9204L98.2073 31.7843C97.8672 31.6521 97.5649 31.5765 97.2249 31.5765C96.0347 31.5765 94.75 32.9368 94.75 35.8272C94.75 38.6232 96.1291 40.0023 97.7538 40.0023C99.303 40.0023 100.172 39.1144 100.758 38.0565L101.117 38.2265C100.531 39.7379 99.3408 41.0981 96.9037 41.117C94.1455 41.1359 92.124 39.1711 92.124 36.1484C92.124 32.9556 94.3155 31.1609 97.0926 31.1609C98.3206 31.1609 99.3974 31.3498 100.625 31.6143L100.493 34.9204H100.342ZM110.504 39.9646L111.732 40.7391V40.8903H108.521L108.086 39.3411C107.349 40.4557 106.272 41.117 105.007 41.117C103.571 41.117 101.946 40.5124 101.946 38.4532C101.946 36.8852 103.269 36.0728 104.799 35.7139C105.951 35.4305 107.104 35.1471 108.048 34.9015V33.4657C108.048 32.2755 107.595 31.5765 106.537 31.5765C106.216 31.5765 105.857 31.6143 105.366 31.7843L103.042 34.7882H102.891L102.758 31.6332C104.289 31.3309 105.573 31.1609 106.915 31.1609C109.427 31.1609 110.504 32.3889 110.504 33.9569V39.9646ZM106.083 40.059C106.801 40.059 107.444 39.6623 108.048 38.831V35.2605C107.349 35.4683 106.65 35.6761 106.102 35.865C104.95 36.2806 104.421 37.0552 104.421 38.132C104.421 39.3222 105.12 40.059 106.083 40.059Z" fill="#818181"/>
<path fill-rule="evenodd" clip-rule="evenodd" d="M23.9902 37.9564C25.2677 39.4523 25.9065 41.123 25.9065 42.9683C25.9065 44.8137 25.2677 46.4844 23.9902 47.9803C22.7126 46.4844 22.0738 44.8137 22.0738 42.9683C22.0738 41.123 22.7126 39.4523 23.9902 37.9564ZM33.8658 33.8658C35.8269 34.0202 37.46 34.7498 38.7648 36.0547C40.0697 37.3596 40.7994 38.9926 40.9538 40.9538C38.9926 40.7994 37.3596 40.0697 36.0547 38.7648C34.7498 37.46 34.0202 35.8269 33.8658 33.8658ZM14.1146 33.8658C13.9602 35.8269 13.2305 37.46 11.9256 38.7648C10.6208 40.0697 8.98774 40.7994 7.02656 40.9538C7.18099 38.9926 7.91064 37.3596 9.21551 36.0547C10.5204 34.7498 12.1534 34.0202 14.1146 33.8658ZM42.9683 22.0738C44.8137 22.0738 46.4844 22.7126 47.9803 23.9902C46.4844 25.2677 44.8137 25.9065 42.9683 25.9065C41.123 25.9065 39.4523 25.2677 37.9564 23.9902C39.4523 22.7126 41.123 22.0738 42.9683 22.0738ZM5.01199 22.0738C6.85735 22.0738 8.52802 22.7126 10.024 23.9902C8.52802 25.2677 6.85735 25.9065 5.01199 25.9065C3.16663 25.9065 1.49596 25.2677 0 23.9902C1.49596 22.7126 3.16663 22.0738 5.01199 22.0738ZM40.9538 7.02656C40.7994 8.98774 40.0697 10.6208 38.7648 11.9256C37.46 13.2305 35.8269 13.9602 33.8658 14.1146C34.0202 12.1534 34.7498 10.5204 36.0547 9.21551C37.3596 7.91064 38.9926 7.18099 40.9538 7.02656ZM7.02656 7.02656C8.98774 7.18099 10.6208 7.91064 11.9256 9.21551C13.2305 10.5204 13.9602 12.1534 14.1146 14.1146C12.1534 13.9602 10.5204 13.2305 9.21551 11.9256C7.91064 10.6208 7.18099 8.98774 7.02656 7.02656ZM23.9902 0C25.2677 1.49596 25.9065 3.16663 25.9065 5.01199C25.9065 6.85735 25.2677 8.52802 23.9902 10.024C22.7126 8.52802 22.0738 6.85735 22.0738 5.01199C22.0738 3.16663 22.7126 1.49596 23.9902 0Z" fill="#848484"/>
<path d="M23.9894 11.7257C17.2159 11.7257 11.7249 17.2167 11.7249 23.9902C11.7249 30.7637 17.2159 36.2547 23.9894 36.2547C30.7629 36.2547 36.2539 30.7637 36.2539 23.9902C36.2539 17.2167 30.7629 11.7257 23.9894 11.7257ZM23.9894 14.1165C29.4425 14.1165 33.8631 18.5371 33.8631 23.9902C33.8631 29.4433 29.4425 33.8639 23.9894 33.8639C18.5363 33.8639 14.1157 29.4433 14.1157 23.9902C14.1157 18.5371 18.5363 14.1165 23.9894 14.1165ZM23.9894 16.265C19.6945 16.265 16.2128 19.7467 16.2128 24.0416C16.2128 27.9048 19.0298 31.11 22.7216 31.7154L22.7216 29.6335C20.1656 29.0564 18.2569 26.7719 18.2569 24.0416C18.2569 20.8756 20.8234 18.3091 23.9894 18.3091C27.1554 18.3091 29.722 20.8756 29.722 24.0416C29.722 26.7719 27.8132 29.0564 25.2573 29.6335L25.2572 31.7154C28.9491 31.11 31.766 27.9048 31.766 24.0416C31.766 19.7467 28.2843 16.265 23.9894 16.265ZM23.9894 20.3291C21.9674 20.3291 20.3283 21.9682 20.3283 23.9902C20.3283 26.0122 21.9674 27.6513 23.9894 27.6513C26.0114 27.6513 27.6505 26.0122 27.6505 23.9902C27.6505 21.9682 26.0114 20.3291 23.9894 20.3291Z" fill="#848484"/>
</g>
<defs>
<filter id="filter0_d" x="52.5789" y="5.80338" width="67.0502" height="38.6201" filterUnits="userSpaceOnUse" color-interpolation-filters="sRGB">
<feFlood flood-opacity="0" result="BackgroundImageFix"/>
<feColorMatrix in="SourceAlpha" type="matrix" values="0 0 0 0 0 0 0 0 0 0 0 0 0 0 0 0 0 0 127 0" result="hardAlpha"/>
<feOffset dy="1.10214"/>
<feGaussianBlur stdDeviation="1.10214"/>
<feColorMatrix type="matrix" values="0 0 0 0 0 0 0 0 0 0 0 0 0 0 0 0 0 0 0.0974377 0"/>
<feBlend mode="normal" in2="BackgroundImageFix" result="effect1_dropShadow"/>
<feBlend mode="normal" in="SourceGraphic" in2="effect1_dropShadow" result="shape"/>
</filter>
<clipPath id="clip0">
<rect width="119" height="48" fill="white"/>
</clipPath>
</defs>
</svg>
