<svg width="29" height="21" viewBox="0 0 29 21" fill="none" xmlns="http://www.w3.org/2000/svg">
<path d="M1.79716 0C0.804625 0 0 0.804589 0 1.79716C0 2.78973 0.804625 3.59432 1.79716 3.59432H26.2386C27.2311 3.59432 28.0357 2.78973 28.0357 1.79716C28.0357 0.804589 27.2311 0 26.2386 0H1.79716ZM1.79716 8.26694C0.804625 8.26694 0 9.07152 0 10.0641C0 11.0567 0.804625 11.8613 1.79716 11.8613H26.2386C27.2311 11.8613 28.0357 11.0567 28.0357 10.0641C28.0357 9.07152 27.2311 8.26694 26.2386 8.26694H1.79716ZM1.79716 16.5339C0.804625 16.5339 0 17.3385 0 18.331C0 19.3236 0.804625 20.1282 1.79716 20.1282H26.2386C27.2311 20.1282 28.0357 19.3236 28.0357 18.331C28.0357 17.3385 27.2311 16.5339 26.2386 16.5339H1.79716Z" fill="#fff"/>
</svg>
