<svg width="114" height="48" viewBox="0 0 114 48" fill="none" xmlns="http://www.w3.org/2000/svg">
<g clip-path="url(#clip0)">
<path fill-rule="evenodd" clip-rule="evenodd" d="M15.5585 10.2441V20.4876L22.4757 20.6992C30.0745 20.9307 31.1631 21.475 31.1631 25.0422C31.1631 28.2418 29.9572 28.7124 21.7561 28.7124H14.3102V32.7696V36.8268H22.7616C30.0084 36.8268 31.5651 36.647 33.6842 35.5659C40.5196 32.0786 42.0114 21.2104 36.3563 16.0964C34.5768 14.4873 31.263 13.2807 27.262 12.7845C23.6873 12.3413 23.6729 12.3314 23.6729 10.2272V8.11438H30.2268H36.7808V4.05719V0H26.1697H15.5585V10.2441ZM49.8886 22.7508V39.9477H74.4302C103.357 39.9477 103.703 39.8946 108.914 34.6827C113.792 29.8054 115.206 24.282 113.258 17.7193C112.077 13.7445 108.667 9.77158 104.591 7.62127L101.384 5.92974L75.6362 5.74186L49.8886 5.55335V22.7508ZM0.192407 11.5143C0.00203148 12.0112 -0.0572662 18.4009 0.0607044 25.7145C0.299142 40.4708 0.473913 41.2036 4.61474 44.8394C7.37488 47.2631 9.00587 47.7213 14.9344 47.7369L19.6157 47.75L19.7999 43.9188L19.984 40.0869L15.2127 39.846C11.4096 39.6537 10.2648 39.3622 9.56764 38.4085C8.88166 37.4716 8.69253 34.3338 8.69253 23.9118V10.6111H4.61599C1.63427 10.6111 0.445826 10.8539 0.192407 11.5143ZM58.003 20.4894C58.003 30.2953 58.0148 30.3784 59.6103 31.877C60.8592 33.0505 61.9016 33.3875 64.2897 33.39C65.9794 33.3925 67.3632 33.6747 67.3651 34.018C67.367 34.3881 65.8546 34.5566 63.6531 34.4324C60.7238 34.267 59.6171 33.9019 58.4224 32.7066C56.4307 30.7148 56.1304 28.9146 56.1304 18.9596C56.1304 11.955 56.2809 10.6111 57.0667 10.6111C57.8594 10.6111 58.003 12.1248 58.003 20.4894ZM89.8363 19.0576C89.8363 28.2006 90.4674 30.8927 93.0303 32.6878C95.4883 34.41 98.4101 33.9955 100.822 31.5837C102.633 29.7723 102.944 29.032 102.944 26.5278C102.944 24.0236 102.633 23.2833 100.822 21.4719C98.4313 19.0813 95.4914 18.6437 93.0964 20.3215C92.333 20.8558 91.7089 21.0119 91.7089 20.6686C91.7089 19.5463 94.4384 18.1013 96.56 18.1013C101.299 18.1013 104.446 21.4644 104.446 26.5278C104.446 30.1018 103.062 32.666 100.386 34.0498C96.8172 35.8949 92.3549 34.7458 90.0847 31.397C89.0773 29.9102 88.8682 28.2231 88.6878 20.1299C88.5411 13.5479 88.6859 10.6111 89.156 10.6111C89.6135 10.6111 89.8363 13.3787 89.8363 19.0576ZM80.4486 19.1225C83.3979 20.8646 84.4209 23.3682 84.479 28.9852C84.5501 35.883 83.3735 35.8 82.9397 28.8766C82.539 22.4837 82.1776 21.49 79.8044 20.2628C77.4294 19.0345 75.5575 19.1168 73.2037 20.5518C69.046 23.0873 69.0285 29.9577 73.1731 32.485C75.5943 33.9612 77.4238 34.0242 79.9499 32.7178C81.4167 31.9588 81.7968 31.9226 81.5859 32.5617C81.1951 33.7452 78.6129 34.9349 76.4164 34.943C72.3966 34.9574 68.6141 30.8777 68.6141 26.5278C68.6141 20.319 75.3447 16.107 80.4486 19.1225Z" fill="#838383"/>
</g>
<defs>
<clipPath id="clip0">
<rect width="114" height="48" fill="white"/>
</clipPath>
</defs>
</svg>
