<svg width="87" height="48" viewBox="0 0 87 48" fill="none" xmlns="http://www.w3.org/2000/svg">
<mask id="mask0" mask-type="alpha" maskUnits="userSpaceOnUse" x="18" y="4" width="9" height="12">
<path d="M20.3773 15.1425C20.3773 13.5195 19.6637 11.9743 18.4043 10.8218L18.8141 4.02856C20.3041 4.66249 21.282 5.45885 21.6892 5.83147C24.6277 8.14061 26.3097 11.5252 26.3097 15.1425H20.3773Z" fill="white"/>
</mask>
<g mask="url(#mask0)">
<path fill-rule="evenodd" clip-rule="evenodd" d="M18.4004 15.1579H26.316V4.02185H18.4004V15.1579Z" fill="#848484"/>
</g>
<mask id="mask1" mask-type="alpha" maskUnits="userSpaceOnUse" x="0" y="4" width="29" height="44">
<path d="M0.0585938 34.0961V33.5936L5.98259 33.5928C5.98301 36.1332 6.99379 38.3847 8.82862 39.9329C10.677 41.4927 13.1908 42.1389 15.7257 41.7067C18.204 41.2842 20.3862 39.9107 21.5629 38.0333C22.4919 36.5507 22.7082 34.9194 22.2053 33.1852C21.4303 30.5123 18.9977 28.6328 14.9752 27.5987C14.6036 27.5033 14.2266 27.41 13.8472 27.316C11.5173 26.7384 8.87636 26.0837 6.65974 24.7389C3.79464 23.0005 2.14329 20.4246 1.75147 17.0825C1.21189 12.4793 3.20831 7.97358 6.83757 5.60398C7.79029 4.98192 8.71181 4.50238 9.59546 4.13782L10.0134 10.6199C8.32323 11.7677 7.37191 14.0734 7.64368 16.3918C8.0016 19.4453 10.2438 20.3107 15.2745 21.5577C15.6704 21.656 16.0641 21.7534 16.452 21.8533C22.5626 23.4237 26.5225 26.771 27.9031 31.5331C28.8689 34.864 28.4024 38.2912 26.5897 41.1835C24.5296 44.4708 20.8412 46.8526 16.723 47.5547C15.8839 47.6983 15.0341 47.7706 14.1828 47.7708C10.8023 47.7708 7.55483 46.6202 5.00288 44.4672C1.98029 41.9168 0.195323 38.1597 0.0585938 34.0961Z" fill="white"/>
</mask>
<g mask="url(#mask1)">
<path fill-rule="evenodd" clip-rule="evenodd" d="M0.0585938 47.7866H28.3988V4.12366H0.0585938V47.7866Z" fill="#848484"/>
</g>
<mask id="mask2" mask-type="alpha" maskUnits="userSpaceOnUse" x="12" y="0" width="5" height="15">
<path d="M14.2242 14.6501C13.0541 14.6501 12.1055 13.7015 12.1055 12.5314V2.34786C12.1055 1.17776 13.0541 0.229126 14.2242 0.229126C15.3945 0.229126 16.3429 1.17776 16.3429 2.34786V12.5314C16.3429 13.7015 15.3945 14.6501 14.2242 14.6501Z" fill="white"/>
</mask>
<g mask="url(#mask2)">
<path fill-rule="evenodd" clip-rule="evenodd" d="M12.0918 14.6504H16.3462V0.226074H12.0918V14.6504Z" fill="#848484"/>
</g>
<mask id="mask3" mask-type="alpha" maskUnits="userSpaceOnUse" x="44" y="4" width="14" height="44">
<path d="M46.9697 47.7143C46.5987 47.7143 46.2313 47.6413 45.8885 47.4993C45.5457 47.3574 45.2343 47.1493 44.9719 46.887C44.7096 46.6247 44.5015 46.3132 44.3595 45.9704C44.2175 45.6277 44.1445 45.2603 44.1445 44.8893V4.56079H49.7945V40.3307L54.8446 37.8209L57.3592 42.8804L48.2268 47.4191C47.8362 47.6133 47.4059 47.7144 46.9697 47.7143Z" fill="white"/>
</mask>
<g mask="url(#mask3)">
<path fill-rule="evenodd" clip-rule="evenodd" d="M44.1289 47.7194H57.3668V4.54797H44.1289V47.7194Z" fill="#848484"/>
</g>
<mask id="mask4" mask-type="alpha" maskUnits="userSpaceOnUse" x="32" y="23" width="7" height="25">
<path d="M32.4844 23.8198H38.1343V47.4569H32.4844V23.8198Z" fill="white"/>
</mask>
<g mask="url(#mask4)">
<path fill-rule="evenodd" clip-rule="evenodd" d="M32.4844 47.4569H38.1343V23.8198H32.4844V47.4569Z" fill="#848484"/>
</g>
<mask id="mask5" mask-type="alpha" maskUnits="userSpaceOnUse" x="31" y="10" width="9" height="9">
<path d="M35.3111 18.2127C33.0836 18.2127 31.2715 16.4006 31.2715 14.1732C31.2715 11.9459 33.0836 10.1338 35.3111 10.1338C37.5386 10.1338 39.3507 11.9459 39.3507 14.1732C39.3507 16.4006 37.5386 18.2127 35.3111 18.2127Z" fill="white"/>
</mask>
<g mask="url(#mask5)">
<path fill-rule="evenodd" clip-rule="evenodd" d="M31.2617 18.2269H39.3638V10.1249H31.2617V18.2269Z" fill="#848484"/>
</g>
<mask id="mask6" mask-type="alpha" maskUnits="userSpaceOnUse" x="57" y="18" width="30" height="30">
<path d="M71.7624 41.9482C76.6826 41.9482 80.6854 37.9454 80.6854 33.0254C80.6854 28.1052 76.6826 24.1024 71.7624 24.1024C66.8423 24.1024 62.8394 28.1052 62.8394 33.0254C62.8394 37.9454 66.8423 41.9482 71.7624 41.9482ZM81.2934 18.5915H86.9433V47.6418H81.2934V44.0408C78.7363 46.2562 75.4031 47.5982 71.7624 47.5982C63.7269 47.5982 57.1895 41.0609 57.1895 33.0254C57.1895 24.9897 63.7269 18.4524 71.7624 18.4524C75.4031 18.4524 78.7363 19.7944 81.2934 22.0098V18.5915Z" fill="white"/>
</mask>
<g mask="url(#mask6)">
<path fill-rule="evenodd" clip-rule="evenodd" d="M57.1797 47.6514H86.9437V18.4467H57.1797V47.6514Z" fill="#848484"/>
</g>
</svg>
