<svg width="136" height="24" viewBox="0 0 136 24" fill="none" xmlns="http://www.w3.org/2000/svg">
<path fill-rule="evenodd" clip-rule="evenodd" d="M11.9999 2.625C11.4214 2.62501 10.843 2.94386 10.6079 3.58156L9.13112 7.58775C8.9254 8.14582 8.39242 8.52463 7.78629 8.54357L3.43509 8.67952C2.04985 8.72281 1.48006 10.4383 2.57474 11.2698L6.01324 13.8817C6.49224 14.2456 6.69582 14.8585 6.52692 15.4283L5.31451 19.5185C4.92852 20.8206 6.42023 21.8809 7.56693 21.1194L11.1688 18.7274C11.4197 18.5608 11.7098 18.4775 11.9999 18.4775V2.625ZM21.9999 10.1301C21.9999 10.1363 21.9999 10.1425 21.9999 10.1488V10.1301Z" fill="#FFCC00"/>
<path fill-rule="evenodd" clip-rule="evenodd" d="M12.0001 2.625C12.5786 2.62501 13.157 2.94386 13.3921 3.58156L14.8689 7.58775C15.0746 8.14582 15.6076 8.52463 16.2137 8.54357L20.5649 8.67952C21.9502 8.72281 22.5199 10.4383 21.4253 11.2698L17.9868 13.8817C17.5078 14.2456 17.3042 14.8585 17.4731 15.4283L18.6855 19.5185C19.0715 20.8206 17.5798 21.8809 16.4331 21.1194L12.8312 18.7274C12.5803 18.5608 12.2902 18.4775 12.0001 18.4775V2.625ZM2.0001 10.1304C2.00007 10.1364 2.00007 10.1424 2.0001 10.1485V10.1304Z" fill="#FFCC00"/>
<path fill-rule="evenodd" clip-rule="evenodd" d="M39.9999 2.625C39.4214 2.62501 38.843 2.94386 38.6079 3.58156L37.1311 7.58775C36.9254 8.14582 36.3924 8.52463 35.7863 8.54357L31.4351 8.67952C30.0498 8.72281 29.4801 10.4383 30.5747 11.2698L34.0132 13.8817C34.4922 14.2456 34.6958 14.8585 34.5269 15.4283L33.3145 19.5185C32.9285 20.8206 34.4202 21.8809 35.5669 21.1194L39.1688 18.7274C39.4197 18.5608 39.7098 18.4775 39.9999 18.4775V2.625ZM49.9999 10.1301C49.9999 10.1363 49.9999 10.1425 49.9999 10.1488V10.1301Z" fill="#FFCC00"/>
<path fill-rule="evenodd" clip-rule="evenodd" d="M40.0001 2.625C40.5786 2.62501 41.157 2.94386 41.3921 3.58156L42.8689 7.58775C43.0746 8.14582 43.6076 8.52463 44.2137 8.54357L48.5649 8.67952C49.9502 8.72281 50.5199 10.4383 49.4253 11.2698L45.9868 13.8817C45.5078 14.2456 45.3042 14.8585 45.4731 15.4283L46.6855 19.5185C47.0715 20.8206 45.5798 21.8809 44.4331 21.1194L40.8312 18.7274C40.5803 18.5608 40.2902 18.4775 40.0001 18.4775V2.625ZM30.0001 10.1304C30.0001 10.1364 30.0001 10.1424 30.0001 10.1485V10.1304Z" fill="#FFCC00"/>
<path fill-rule="evenodd" clip-rule="evenodd" d="M67.9999 2.625C67.4214 2.62501 66.843 2.94386 66.6079 3.58156L65.1311 7.58775C64.9254 8.14582 64.3924 8.52463 63.7863 8.54357L59.4351 8.67952C58.0498 8.72281 57.4801 10.4383 58.5747 11.2698L62.0132 13.8817C62.4922 14.2456 62.6958 14.8585 62.5269 15.4283L61.3145 19.5185C60.9285 20.8206 62.4202 21.8809 63.5669 21.1194L67.1688 18.7274C67.4197 18.5608 67.7098 18.4775 67.9999 18.4775V2.625ZM77.9999 10.1301C77.9999 10.1363 77.9999 10.1425 77.9999 10.1488V10.1301Z" fill="#FFCC00"/>
<path fill-rule="evenodd" clip-rule="evenodd" d="M68.0001 2.625C68.5786 2.62501 69.157 2.94386 69.3921 3.58156L70.8689 7.58775C71.0746 8.14582 71.6076 8.52463 72.2137 8.54357L76.5649 8.67952C77.9502 8.72281 78.5199 10.4383 77.4253 11.2698L73.9868 13.8817C73.5078 14.2456 73.3042 14.8585 73.4731 15.4283L74.6855 19.5185C75.0715 20.8206 73.5798 21.8809 72.4331 21.1194L68.8312 18.7274C68.5803 18.5608 68.2902 18.4775 68.0001 18.4775V2.625ZM58.0001 10.1304C58.0001 10.1364 58.0001 10.1424 58.0001 10.1485V10.1304Z" fill="#FFCC00"/>
<path fill-rule="evenodd" clip-rule="evenodd" d="M95.9999 2.625C95.4214 2.62501 94.843 2.94386 94.6079 3.58156L93.1311 7.58775C92.9254 8.14582 92.3924 8.52463 91.7863 8.54357L87.4351 8.67952C86.0498 8.72281 85.4801 10.4383 86.5747 11.2698L90.0132 13.8817C90.4922 14.2456 90.6958 14.8585 90.5269 15.4283L89.3145 19.5185C88.9285 20.8206 90.4202 21.8809 91.5669 21.1194L95.1688 18.7274C95.4197 18.5608 95.7098 18.4775 95.9999 18.4775V2.625ZM106 10.1301C106 10.1363 106 10.1425 106 10.1488V10.1301Z" fill="#FFCC00"/>
<path fill-rule="evenodd" clip-rule="evenodd" d="M96.0001 2.625C96.5786 2.62501 97.157 2.94386 97.3921 3.58156L98.8689 7.58775C99.0746 8.14582 99.6076 8.52463 100.214 8.54357L104.565 8.67952C105.95 8.72281 106.52 10.4383 105.425 11.2698L101.987 13.8817C101.508 14.2456 101.304 14.8585 101.473 15.4283L102.685 19.5185C103.071 20.8206 101.58 21.8809 100.433 21.1194L96.8312 18.7274C96.5803 18.5608 96.2902 18.4775 96.0001 18.4775V2.625ZM86.0001 10.1304C86.0001 10.1364 86.0001 10.1424 86.0001 10.1485V10.1304Z" fill="#FFCC00"/>
<path fill-rule="evenodd" clip-rule="evenodd" d="M124 2.625C123.421 2.62501 122.843 2.94386 122.608 3.58156L121.131 7.58775C120.925 8.14582 120.392 8.52463 119.786 8.54357L115.435 8.67952C114.05 8.72281 113.48 10.4383 114.575 11.2698L118.013 13.8817C118.492 14.2456 118.696 14.8585 118.527 15.4283L117.315 19.5185C116.929 20.8206 118.42 21.8809 119.567 21.1194L123.169 18.7274C123.42 18.5608 123.71 18.4775 124 18.4775V2.625ZM134 10.1301C134 10.1363 134 10.1425 134 10.1488V10.1301Z" fill="#FFCC00"/>
<path fill-rule="evenodd" clip-rule="evenodd" d="M124 2.625C124.579 2.62501 125.157 2.94386 125.392 3.58156L126.869 7.58775C127.075 8.14582 127.608 8.52463 128.214 8.54357L132.565 8.67952C133.95 8.72281 134.52 10.4383 133.425 11.2698L129.987 13.8817C129.508 14.2456 129.304 14.8585 129.473 15.4283L130.685 19.5185C131.071 20.8206 129.58 21.8809 128.433 21.1194L124.831 18.7274C124.58 18.5608 124.29 18.4775 124 18.4775V2.625ZM114 10.1304C114 10.1364 114 10.1424 114 10.1485V10.1304Z" fill="#EDF2F7"/>
</svg>
