<svg width="49" height="48" viewBox="0 0 49 48" fill="none" xmlns="http://www.w3.org/2000/svg">
<path d="M29.3284 35.3138C27.7663 33.7517 27.7663 31.219 29.3284 29.6569L32.1569 26.8285C33.719 25.2664 36.2516 25.2664 37.8137 26.8285L43.4706 32.4854C43.9924 33.0072 43.6228 33.8996 42.8848 33.8996C42.4272 33.8996 42.0564 34.2705 42.0564 34.728V35.3138C42.0564 36.0948 41.4232 36.728 40.6421 36.728C39.8611 36.728 39.2279 37.3612 39.2279 38.1422C39.2279 38.9233 38.5948 39.5564 37.8137 39.5564L37.2279 39.5564C36.7704 39.5564 36.3995 39.9273 36.3995 40.3848C36.3995 41.1229 35.5072 41.4925 34.9853 40.9706L29.3284 35.3138Z" fill="#22B94C"/>
<path d="M18.863 35.3138C20.4251 33.7517 20.4251 31.219 18.863 29.6569L16.0346 26.8285C14.4725 25.2664 11.9398 25.2664 10.3777 26.8285L4.72084 32.4854C4.19896 33.0072 4.56858 33.8996 5.30663 33.8996C5.76416 33.8996 6.13506 34.2705 6.13506 34.728V35.3138C6.13506 36.0948 6.76822 36.728 7.54927 36.728C8.33032 36.728 8.96348 37.3612 8.96348 38.1422C8.96348 38.9233 9.59665 39.5564 10.3777 39.5564L10.9635 39.5564C11.421 39.5564 11.7919 39.9273 11.7919 40.3848C11.7919 41.1229 12.6842 41.4925 13.2061 40.9706L18.863 35.3138Z" fill="#22B94C"/>
<circle cx="24.5" cy="22" r="14" fill="#3A3391"/>
<path d="M19.5 22L22.1029 25.1847C22.4652 25.628 23.1251 25.6772 23.5491 25.2924L27.8077 21.4286L30.5 19" stroke="#22B94C" stroke-width="3" stroke-linecap="round" stroke-linejoin="round"/>
</svg>
